<?xml version="1.0" encoding="UTF-8"?>
<svg width="32px" height="32px" viewBox="0 0 32 32" version="1.1" xmlns="http://www.w3.org/2000/svg" xmlns:xlink="http://www.w3.org/1999/xlink">
    <title>icon/用药方案/44pt</title>
    <g id="V2.4" stroke="none" stroke-width="1" fill="none" fill-rule="evenodd">
        <g id="糖尿病管理-已记录" transform="translate(-280.000000, -596.000000)">
            <g id="慢病管理" transform="translate(16.000000, 548.000000)">
                <g id="icon/记录运动/44pt" transform="translate(264.000000, 48.000000)">
                    <rect id="Bound" x="0" y="0" width="32" height="32"></rect>
                    <g id="登记" transform="translate(1.454545, 4.181818)" fill-rule="nonzero">
                        <path d="M21.4751988,27.6363636 L4.41339521,27.6363636 C1.97646964,27.6363636 0,25.6623377 0,23.2284251 L0,4.40793857 C0,1.97402597 1.97646964,0 4.41339521,0 L21.4751988,0 C23.9121243,0 25.888594,1.97402597 25.888594,4.40793857 L25.888594,23.2284251 C25.888594,25.6623377 23.9121243,27.6363636 21.4751988,27.6363636 Z" id="路径" fill="#A5ADF6"></path>
                        <path d="M18.3766795,9.63603596 L4.9652774,9.63603596 C4.23054268,9.63603596 3.6354408,9.04166985 3.6354408,8.30784354 C3.6354408,7.57401724 4.23054268,6.97965113 4.9652774,6.97965113 L18.3766795,6.97965113 C19.1114142,6.97965113 19.7065161,7.57401724 19.7065161,8.30784354 C19.7065161,9.04166985 19.1114142,9.63603596 18.3766795,9.63603596 Z M13.2834053,17.1801689 L4.9652774,17.1801689 C4.23054268,17.1801689 3.6354408,16.5858028 3.6354408,15.8519765 C3.6354408,15.1181501 4.23054268,14.523784 4.9652774,14.523784 L13.2834053,14.523784 C14.01814,14.523784 14.6132419,15.1181501 14.6132419,15.8519765 C14.6132419,16.5858028 14.01814,17.1801689 13.2834053,17.1801689 Z" id="形状" fill="#FFFFFF"></path>
                        <path d="M18.3085254,25.9229954 L14.8808715,26.2699857 C14.4519992,26.3131519 14.1278516,25.989405 14.1710713,25.561063 L14.5184911,22.137647 C14.5583862,21.750811 14.742901,21.3722762 15.035465,21.0800738 L24.2346097,11.8923028 C24.8696067,11.2580909 25.8320759,11.1900211 26.3822958,11.7395607 L28.7178213,14.0721986 C29.2697035,14.6233985 29.2015494,15.5830175 28.5648901,16.2172294 L19.3657455,25.4050004 C19.0731814,25.698863 18.6958403,25.8848099 18.3085254,25.9229954 Z" id="路径" fill="#A5ADF6"></path>
                        <path d="M25.888594,11.4373969 C25.3583216,11.2614114 24.7067017,11.4207945 24.2346097,11.8923028 L15.035465,21.0800738 C14.742901,21.3722762 14.5583862,21.750811 14.5184911,22.137647 L14.1710713,25.561063 C14.1278516,25.989405 14.4519992,26.3131519 14.8808715,26.2699857 L18.3085254,25.9229954 C18.6958403,25.8831497 19.0748437,25.698863 19.3674078,25.4066606 L25.888594,18.8935371 L25.888594,11.4373969 L25.888594,11.4373969 Z" id="路径" fill="#635DF7"></path>
                    </g>
                </g>
            </g>
        </g>
    </g>
</svg>