<?xml version="1.0" encoding="UTF-8"?>
<svg width="32px" height="32px" viewBox="0 0 32 32" version="1.1" xmlns="http://www.w3.org/2000/svg" xmlns:xlink="http://www.w3.org/1999/xlink">
    <title>icon/用药方案/44pt</title>
    <g id="V2.4" stroke="none" stroke-width="1" fill="none" fill-rule="evenodd">
        <g id="糖尿病管理-已记录" transform="translate(-64.000000, -664.000000)">
            <g id="慢病管理" transform="translate(16.000000, 548.000000)">
                <g id="icon/用药方案/44pt备份" transform="translate(48.000000, 116.000000)">
                    <rect id="Bound" x="0" y="0" width="32" height="32"></rect>
                    <g id="电子病历-01" transform="translate(1.454545, 1.454545)" fill-rule="nonzero">
                        <path d="M29.0844069,1.61068639 C29.0844069,0.725943161 28.3561588,0 27.4686065,0 L18.49555,0 C12.3249482,4.71214891 6.89884992,10.4937677 0,12.6100216 L0,19.8532491 C0,20.7185474 0.711992522,21.4282865 1.5800382,21.4282865 L6.07306864,21.4282865 C14.3341326,17.4420808 21.6101109,12.4026093 29.0844069,7.25294998 L29.0844069,1.61068639 Z" id="路径" fill="#FFC166"></path>
                        <path d="M6.07306864,21.4282865 L10.4328037,21.4282865 C10.956232,21.4282865 11.382127,21.8528336 11.382127,22.3746053 L11.382127,24.8959614 C11.382127,25.4177331 10.956232,25.8422802 10.4328037,25.8422802 L7.58808469,25.8422802 C6.8890966,25.8422802 6.32340391,26.4061825 6.32340391,27.1029583 C6.32340391,27.7997341 6.8890966,28.3636364 7.58808469,28.3636364 L21.5028244,28.3603955 C22.1985614,28.3603955 22.7642541,27.7964933 22.7642541,27.1029583 C22.7642541,26.4094233 22.2018125,25.845521 21.5060755,25.8422802 L18.6516032,25.8422802 C18.1281749,25.8422802 17.7087821,25.4177331 17.7087821,24.8959614 L17.7087821,22.3746053 C17.7087821,21.8528336 18.1346771,21.4282865 18.6581054,21.4282865 L27.5108709,21.4282865 C28.3789166,21.4282865 29.0909091,20.7185474 29.0909091,19.8532491 L29.0909091,7.25294998 C21.6101109,12.4026093 14.3341326,17.4420808 6.07306864,21.4282865 Z" id="路径" fill="#FFB000"></path>
                        <path d="M1.5800382,0 C0.711992522,0 0,0.709739073 0,1.57503739 L0,12.6100216 C6.89884992,10.4970085 12.3249482,4.71214891 18.4922989,0 L1.5800382,0 Z" id="路径" fill="#FFD98D"></path>
                        <path d="M11.382127,5.35707163 L12.6468078,5.35707163 C12.9946763,5.35707163 13.2775227,5.07512049 13.2775227,4.728353 L13.2775227,3.46767492 C13.2775227,3.12090743 13.560369,2.83895629 13.9082375,2.83895629 L15.1729183,2.83895629 C15.5207868,2.83895629 15.8036331,3.12090743 15.8036331,3.46767492 L15.8036331,4.728353 C15.8036331,5.07512049 16.0864795,5.35707163 16.4343479,5.35707163 L17.7022798,5.35707163 C18.0501483,5.35707163 18.3329947,5.63902277 18.3329947,5.98579026 L18.3329947,7.24646834 C18.3329947,7.59323583 18.0501483,7.87518697 17.7022798,7.87518697 L16.4375991,7.87518697 C16.0897306,7.87518697 15.8068842,8.15713811 15.8068842,8.5039056 L15.8068842,9.76458368 C15.8068842,10.1113512 15.5240379,10.3933023 15.1761694,10.3933023 L13.9114886,10.3933023 C13.5636201,10.3933023 13.2807738,10.1113512 13.2807738,9.76458368 L13.2807738,8.5039056 C13.2807738,8.15713811 12.9979274,7.87518697 12.6500589,7.87518697 L11.3853781,7.87518697 C11.0375097,7.87518697 10.7546633,7.59323583 10.7546633,7.24646834 L10.7546633,5.98579026 C10.7481611,5.63902277 11.0310074,5.35707163 11.382127,5.35707163 L11.382127,5.35707163 Z M13.9082375,18.592571 L3.79404235,18.592571 C3.44617385,18.592571 3.16332751,18.3106199 3.16332751,17.9638524 C3.16332751,17.6170849 3.44617385,17.331893 3.79404235,17.331893 L13.9114886,17.331893 C14.2593571,17.331893 14.5422034,17.6138441 14.5422034,17.9638524 C14.5422034,18.3106199 14.2593571,18.592571 13.9082375,18.592571 Z M25.2903645,16.0712149 L3.79404235,16.0712149 C3.44617385,16.0712149 3.16332751,15.7892638 3.16332751,15.4424963 C3.16332751,15.0957288 3.44617385,14.8137776 3.79404235,14.8137776 L25.2903645,14.8137776 C25.638233,14.8137776 25.9211068,15.0957288 25.9211068,15.4424963 C25.9243305,15.7892638 25.638233,16.0712149 25.2903645,16.0712149 L25.2903645,16.0712149 Z M25.2903645,13.5498587 L3.79404235,13.5498587 C3.44617385,13.5498587 3.16332751,13.2679076 3.16332751,12.9211401 C3.16332751,12.5743726 3.44617385,12.2924215 3.79404235,12.2924215 L25.2903645,12.2924215 C25.638233,12.2924215 25.9211068,12.5743726 25.9211068,12.9211401 C25.9243305,13.2679076 25.638233,13.5498587 25.2903645,13.5498587 L25.2903645,13.5498587 Z" id="形状" fill="#FFFFFF"></path>
                    </g>
                </g>
            </g>
        </g>
    </g>
</svg>