<?xml version="1.0" encoding="UTF-8"?>
<svg width="32px" height="32px" viewBox="0 0 32 32" version="1.1" xmlns="http://www.w3.org/2000/svg" xmlns:xlink="http://www.w3.org/1999/xlink">
    <title>icon/用药方案/44pt</title>
    <g id="V2.4" stroke="none" stroke-width="1" fill="none" fill-rule="evenodd">
        <g id="糖尿病管理-已记录" transform="translate(-64.000000, -596.000000)">
            <g id="慢病管理" transform="translate(16.000000, 548.000000)">
                <g id="icon/用药方案/44pt" transform="translate(48.000000, 48.000000)">
                    <rect id="Bound" x="0" y="0" width="32" height="32"></rect>
                    <g id="处方" transform="translate(3.636364, 1.454545)" fill-rule="nonzero">
                        <path d="M9.72224512,3.0586051 L15.7685651,3.0586051 C16.5235309,3.00009831 17.0938762,2.32401982 17.0576115,1.53417812 C17.0773922,1.14738321 16.9455205,0.767089058 16.6982609,0.477805473 C16.4510014,0.188521887 16.0982445,0.0162518868 15.7257068,0 L9.72224512,0 C8.95409215,0.0422549057 8.36396604,0.721583775 8.40023078,1.52442698 C8.36396604,2.32727019 8.95738894,3.00659906 9.72224512,3.04885397 L9.72224512,3.0586051 Z" id="路径" fill="#FFC697"></path>
                        <path d="M25.4512487,3.88420095 C25.4512487,3.86144831 25.4446551,3.84194605 25.4446551,3.82244378 C18.9994231,4.88856756 13.5102613,8.60374889 7.58921948,10.1964338 C5.06057859,11.1942996 2.53193769,11.4348276 0.00329679387,10.9277687 L0.00329679387,21.3777319 C9.09585428,20.8869249 16.985082,16.856457 25.4545455,14.9257329 L25.4545455,3.88420095 L25.4512487,3.88420095 Z" id="路径" fill="#FFA664"></path>
                        <path d="M0.00329679387,21.3777319 L0.00329679387,26.7343538 C0.0098903816,28.0345048 1.01541251,29.0843767 2.26160059,29.0909091 L23.1797577,29.0909091 C23.7797742,29.0941278 24.3600099,28.8470991 24.7852963,28.4050478 C25.2138795,27.9629965 25.4545455,27.3616767 25.4545455,26.7343538 L25.4545455,14.9257329 C16.9817852,16.856457 9.09585428,20.8869249 0.00329679387,21.3777319 Z" id="路径" fill="#FF8B22"></path>
                        <path d="M23.1962417,1.51792623 L19.4543806,1.51792623 C19.4510838,3.13986453 18.1950054,4.45301699 16.6422154,4.45951774 L8.83540757,4.45951774 C7.28261765,4.45301699 6.02653919,3.13986453 6.0232424,1.51792623 L2.2583038,1.51792623 C1.00881892,1.52442698 0,2.58079963 0,3.88420095 L0,10.9277687 C2.5286409,11.4348276 5.06057859,11.1910493 7.58921948,10.1964338 C13.5102613,8.60374889 18.9994231,4.88856756 25.4446551,3.82244378 C25.4149839,2.54829585 24.422649,1.52442698 23.1962417,1.51792623 Z" id="路径" fill="#FFC697"></path>
                        <path d="M7.33206956,18.6474149 L14.0839034,18.6474149 C14.4564411,18.6474149 14.7597461,18.9464497 14.7597461,19.3137423 C14.7597461,19.6810349 14.4564411,19.9800697 14.0839034,19.9800697 L7.33206956,19.9800697 C6.95953186,19.9800697 6.65622682,19.6810349 6.65622682,19.3137423 C6.65622682,18.9464497 6.95953186,18.6474149 7.33206956,18.6474149 Z M7.33206956,21.3127244 L19.4873486,21.3127244 C19.8598863,21.3127244 20.1631913,21.6117591 20.1631913,21.9790517 C20.1631913,22.3463444 19.8598863,22.6453791 19.4873486,22.6453791 L7.33206956,22.6453791 C6.95953186,22.6453791 6.65622682,22.3463444 6.65622682,21.9790517 C6.65622682,21.6117591 6.95953186,21.3127244 7.33206956,21.3127244 Z M7.62878101,15.9853559 C7.77713673,15.9853559 7.89911811,15.8650919 7.89911811,15.7188249 L7.89911811,13.7588474 L8.27495261,13.7588474 C8.41012116,13.7588474 8.53869612,13.8043527 8.66067749,13.8921129 C8.78265886,13.979873 8.93431138,14.1813964 9.12552543,14.4901823 L9.96291107,15.8585912 C10.012363,15.9398506 10.1013764,15.9886063 10.1936866,15.9886063 L10.9783236,15.9886063 C11.1926152,15.9886063 11.3211901,15.7545791 11.2058024,15.5790587 L10.3717135,14.2821581 C10.0453309,13.7881008 9.74861947,13.4955668 9.47828237,13.4045563 L9.47828237,13.3883044 C9.88378802,13.2745412 10.203577,13.0762681 10.4376494,12.7967357 C10.668425,12.5172032 10.7871095,12.1824144 10.7871095,11.7891187 C10.7871095,10.7489979 10.091486,10.2289376 8.70353581,10.2289376 L6.92656392,10.2289376 C6.77820819,10.2289376 6.65622682,10.3492015 6.65622682,10.4954685 L6.65622682,15.7123242 C6.65622682,15.8585912 6.77820819,15.9788551 6.92656392,15.9788551 L7.62878101,15.9853559 L7.62878101,15.9853559 Z M8.50902497,12.8227387 L8.1694552,12.8227387 C8.02109948,12.8227387 7.89911811,12.7024747 7.89911811,12.5562078 L7.89911811,11.4348276 C7.89911811,11.2885606 8.02109948,11.1682966 8.1694552,11.1682966 L8.53210253,11.1682966 C9.16179016,11.1682966 9.47828237,11.4283268 9.47828237,11.9483872 C9.47828237,12.1986663 9.38926894,12.4066904 9.21124207,12.57571 C9.03651199,12.7382289 8.80243963,12.8227387 8.50902497,12.8227387 L8.50902497,12.8227387 Z M12.6432045,15.9853559 C12.7421083,15.9853559 12.8344185,15.9333498 12.8805736,15.8455897 L13.4377318,14.841223 C13.5069645,14.7209591 13.56301,14.6039455 13.6058683,14.4836815 L13.6223523,14.4836815 C13.6553202,14.5714417 13.7146625,14.6949561 13.8003791,14.8509742 L14.3443501,15.8423393 C14.3905052,15.9300995 14.4828155,15.9821055 14.5817193,15.9821055 L15.3300915,15.9821055 C15.5443831,15.9821055 15.672958,15.7480783 15.5575703,15.5693076 L14.5520481,14.022128 C14.4927058,13.9311174 14.4960026,13.8173542 14.5553449,13.7263436 L15.5476799,12.2864264 C15.6696613,12.1076557 15.5410863,11.8703781 15.3234979,11.8703781 L14.6740295,11.8703781 C14.5751257,11.8703781 14.4828155,11.9256346 14.4333636,12.0133947 L13.8729086,13.0502651 C13.7838952,13.2225351 13.7245529,13.3492998 13.6981785,13.4338096 L13.6849913,13.4338096 C13.6322426,13.2940434 13.5761971,13.1672787 13.5168549,13.0535155 L12.9761807,12.0166451 C12.9300256,11.9288849 12.8377153,11.8703781 12.7355147,11.8703781 L11.9838457,11.8703781 C11.7695541,11.8703781 11.6409791,12.1011549 11.7563669,12.2799257 L12.7223275,13.7848504 C12.7816698,13.875861 12.778373,13.9896242 12.7190307,14.0773844 L11.6970246,15.5563061 C11.5750433,15.7350768 11.7036182,15.9723544 11.9212066,15.9723544 L12.6432045,15.9723544 L12.6432045,15.9853559 Z" id="形状" fill="#FFFFFF"></path>
                    </g>
                </g>
            </g>
        </g>
    </g>
</svg>