<?xml version="1.0" encoding="UTF-8"?>
<svg width="12px" height="12px" viewBox="0 0 12 12" version="1.1" xmlns="http://www.w3.org/2000/svg" xmlns:xlink="http://www.w3.org/1999/xlink">
    <title>编组</title>
    <g id="V2.4" stroke="none" stroke-width="1" fill="none" fill-rule="evenodd">
        <g id="记录血糖备份-2" transform="translate(-32.000000, -266.000000)">
            <g id="icon/12pt/提示" transform="translate(32.000000, 266.000000)">
                <rect id="Bound" x="0" y="0" width="12" height="12"></rect>
                <g id="提示" transform="translate(0.000000, 0.000000)" fill="#FFC32A" fill-rule="nonzero">
                    <path d="M9.60000021,-3.90185215e-16 L9.6000001,-3.90185215e-16 C10.9254845,-3.90185215e-16 12,1.07451716 12,2.40000036 L12,9.60000036 L12,9.60000036 C12,10.9254847 10.9254833,12 9.6000001,12 L2.4000001,12 L2.4,12 C1.07451562,12 2.04139804e-17,10.9254836 2.04139804e-17,9.60000036 L2.04139804e-17,2.40000036 L2.04139804e-17,2.4 C2.04139804e-17,1.07451562 1.0745168,-3.90185215e-16 2.4,-3.90185215e-16 L9.6,-3.90185215e-16 L9.60000021,-3.90185215e-16 Z M7.00019552,10.156805 L4.99979318,10.156805 L4.99979316,10.156805 C4.81908535,10.1537961 4.67007793,10.2977019 4.66679316,10.478405 C4.66679316,10.656005 4.81559316,10.800005 4.99979316,10.800005 L7.00019551,10.800005 C7.18439551,10.800005 7.33319552,10.656005 7.33319552,10.478405 L7.33319552,10.4784058 C7.32991084,10.2977026 7.1809045,10.1537964 7.00019669,10.1568046 L7.00019552,10.156805 Z M5.99999552,2.99999578 C4.34399552,2.99999578 2.99999552,4.29600036 2.99999552,5.89500036 C2.99999552,6.87900036 3.51119552,7.77780505 4.34519083,8.31059802 C4.43519083,8.36819802 4.49039083,8.46359802 4.49459083,8.56799802 L4.52939083,9.54479802 L4.53539083,9.57779802 L4.53539083,9.577798 C4.55217419,9.62100726 4.59404095,9.64923738 4.64039083,9.64860864 L5.66639083,9.64860864 L5.66639083,7.470598 L4.86839083,6.652198 L4.83119083,6.606598 L4.83119084,6.60659802 C4.74375057,6.47646013 4.765781,6.30175466 4.88279084,6.19739802 L4.88279088,6.19739799 C5.01842252,6.0758558 5.22550807,6.08192365 5.35379088,6.2111981 L6.01379088,6.8879981 L6.77099088,6.1979981 L6.81899088,6.1619981 L6.81899088,6.1619981 C6.95411041,6.07727107 7.12985533,6.09718556 7.24259088,6.2099981 C7.36859088,6.3395981 7.36259088,6.5429981 7.22879088,6.6653981 L6.33359088,7.4813981 L6.33359088,9.64860864 L7.42919088,9.64860864 L7.46399088,9.64259341 L7.46399087,9.64259342 C7.50956345,9.62794545 7.54039443,9.5854617 7.54019087,9.53759342 L7.50659087,8.58959342 L7.50899087,8.53439342 L7.50899087,8.53439343 C7.5228361,8.44201992 7.57630184,8.36028679 7.65539087,8.31059343 C8.48939087,7.77599343 8.99999552,6.87839812 8.99999552,5.89499578 C8.99999552,4.29599578 7.65658618,2.99999578 5.99999552,2.99999578 L5.99999552,2.99999578 Z M3.18899552,2.30400036 L3.18899554,2.30400037 C2.97573187,2.142891 2.67226077,2.18505389 2.51099554,2.39820037 L2.47799554,2.44140037 L2.47799555,2.44140035 C2.32035024,2.64977731 2.35131235,2.94470543 2.54879555,3.11580035 L2.96399555,3.47640035 L2.98979555,3.49740035 L2.98979552,3.49740033 C3.20321622,3.65837845 3.50671309,3.61594252 3.66779552,3.40260045 L3.70079552,3.35940045 L3.70079551,3.35940045 C3.85844082,3.1510235 3.82747871,2.85609537 3.62999551,2.68500045 L3.21419551,2.32500045 L3.21419549,2.32500044 C3.20603519,2.31771792 3.19763046,2.31071399 3.18899585,2.30400067 L3.18899552,2.30400036 Z M9.46859318,2.37300036 L9.46859318,2.37300037 C9.29324553,2.17130076 8.98763459,2.14981677 8.78579318,2.32500037 L8.36999318,2.68500037 L8.36999316,2.68500039 C8.17250995,2.85609531 8.14154785,3.15102344 8.29919316,3.35940039 L8.33219316,3.40260039 L8.35259316,3.42840039 L8.35259313,3.42840036 C8.52787634,3.63035896 8.83369235,3.65198239 9.03564977,3.4766986 C9.03576423,3.47659927 9.03587863,3.47649988 9.03599299,3.47640043 L9.45119299,3.11580043 L9.45119298,3.11580044 C9.64867619,2.94470552 9.6796383,2.64977739 9.52199298,2.44140044 L9.48959298,2.39820044 L9.48959301,2.39820047 C9.48287972,2.38956581 9.47587574,2.38116105 9.46859324,2.37300082 L9.46859318,2.37300036 Z M5.99999552,0.600000362 L5.9999955,0.600000362 C5.72595136,0.600000362 5.5037955,0.822156222 5.5037955,1.09620036 C5.5037955,1.09620036 5.5037955,1.09620036 5.5037955,1.09620036 L5.5037955,1.69980036 L5.5037955,1.69980042 C5.5037955,1.97384456 5.72595136,2.19600042 5.9999955,2.19600042 C6.27403964,2.19600042 6.4961955,1.97384456 6.4961955,1.69980042 L6.4961955,1.09620042 L6.4961955,1.09620042 C6.4961955,0.822156279 6.27403964,0.600000362 5.9999955,0.600000362 L5.99999552,0.600000362 Z" id="形状"></path>
                </g>
            </g>
        </g>
    </g>
</svg>