<?xml version="1.0" encoding="UTF-8"?>
<svg width="32px" height="32px" viewBox="0 0 32 32" version="1.1" xmlns="http://www.w3.org/2000/svg" xmlns:xlink="http://www.w3.org/1999/xlink">
    <title>icon/用药方案/44pt</title>
    <g id="V2.4" stroke="none" stroke-width="1" fill="none" fill-rule="evenodd">
        <g id="糖尿病管理-已记录" transform="translate(-172.000000, -596.000000)">
            <g id="慢病管理" transform="translate(16.000000, 548.000000)">
                <g id="icon/食物库/44pt" transform="translate(156.000000, 48.000000)">
                    <rect id="Bound" x="0" y="0" width="32" height="32"></rect>
                    <g id="中医科" transform="translate(1.454545, 1.454545)" fill-rule="nonzero">
                        <path d="M5.29872455,0.656296808 C4.41994345,-0.218765603 2.98785573,-0.218765603 2.10907464,0.656296808 L1.55902276,1.20362049 C0.680241665,2.0786829 0.680241665,3.51417854 1.55902276,4.39251834 L6.29467646,10.0984496 C8.84965113,9.42986263 11.3688236,8.7153922 13.5169552,7.46670763 L5.29872455,0.656296808 Z" id="路径" fill="#FFB8B3"></path>
                        <path d="M28.0624097,16.3418725 C28.6450091,16.2468282 29.0909091,15.7421106 29.0909091,15.1357939 L29.0909091,14.8506612 C29.0909091,14.1820742 28.5408572,13.6314732 27.8703798,13.6314732 L1.2205293,13.6314732 C0.550051872,13.6314732 0,14.1820742 0,14.8539386 L0,15.1390713 C0,15.745388 0.445900039,16.2501056 1.02849936,16.3451499 C1.30515267,18.4459551 2.06350821,20.399278 3.18639517,22.083855 C11.567363,21.0023172 20.4235237,20.8089514 27.8736345,17.4397972 C27.9452389,17.0792846 28.0135886,16.7154946 28.0624097,16.3418725 Z" id="路径" fill="#FF928A"></path>
                        <path d="M3.17988568,22.0871324 C4.62499237,24.2567628 6.67222686,25.9905007 9.0872475,27.0458194 L9.0872475,27.9634879 C9.0872475,28.5829141 9.59498769,29.0909091 10.2133892,29.0909091 L18.8710104,29.0909091 C19.4894119,29.0909091 20.0004068,28.5829141 20.0004068,27.9634879 L20.0004068,27.0458194 C23.9581765,25.3153589 26.9297585,21.7593937 27.8638703,17.4430746 C20.4170142,20.8122288 11.5608536,21.0055946 3.17988568,22.0871324 L3.17988568,22.0871324 Z" id="路径" fill="#FF6648"></path>
                        <path d="M18.7636038,11.8158006 L13.5202099,7.46998502 C11.3688236,8.72194697 8.84965113,9.43314002 6.2979312,10.101727 L7.72025468,11.8158006 L18.7636038,11.8158006 Z" id="路径" fill="#FF928A"></path>
                    </g>
                </g>
            </g>
        </g>
    </g>
</svg>