<?xml version="1.0" encoding="UTF-8"?>
<svg width="32px" height="32px" viewBox="0 0 32 32" version="1.1" xmlns="http://www.w3.org/2000/svg" xmlns:xlink="http://www.w3.org/1999/xlink">
    <title>icon/用药方案/44pt</title>
    <g id="V2.4" stroke="none" stroke-width="1" fill="none" fill-rule="evenodd">
        <g id="糖尿病管理-已记录" transform="translate(-172.000000, -664.000000)">
            <g id="慢病管理" transform="translate(16.000000, 548.000000)">
                <g id="icon/食物库/44pt备份" transform="translate(156.000000, 116.000000)">
                    <rect id="Bound" x="0" y="0" width="32" height="32"></rect>
                    <g id="问诊" transform="translate(3.000000, 2.000000)" fill-rule="nonzero">
                        <path d="M9.54539567,3.03898675 L9.54539567,3.04870632 L15.4837456,3.04870632 C16.2252299,2.99038888 16.7853905,2.31649843 16.7497733,1.52921295 C16.7692009,1.14366985 16.639684,0.764606474 16.3968398,0.476259117 C16.1539956,0.187911761 15.8075379,0.0161992897 15.4416526,0 L9.54539567,0 C8.79095972,0.0421181532 8.21137158,0.719248463 8.24698873,1.51949337 C8.21137158,2.31973829 8.79095972,2.9968686 9.54539567,3.03898675 Z" id="路径" fill="#D1A6FF"></path>
                        <path d="M22.6330786,1.51625352 L19.103743,1.51625352 C19.1005051,3.13294263 17.8668566,4.44184524 16.3417951,4.44832495 L8.67439451,4.44832495 C7.14933299,4.44184524 5.9156845,3.13294263 5.91244657,1.51625352 L2.21797695,1.51625352 C0.9908043,1.52273323 0,2.57568706 0,3.8748701 L0,12.8039186 C8.87514571,12.8816752 17.9801839,8.80593388 22.6330786,1.51625352 Z" id="路径" fill="#D1A6FF"></path>
                        <path d="M0,22.7924006 L0,26.6510714 C0.0064758451,27.9470146 0.994042223,28.9934887 2.21797695,29 L22.7625955,29 C23.3518974,29.0032083 23.9217718,28.7569791 24.3394638,28.3163584 C24.7603937,27.8757377 24.9967621,27.276364 25,26.6510714 L25,16.9023389 C18.2813107,22.0828717 8.67763243,24.2276577 0,22.7924006 Z" id="路径" fill="#BC5FFF"></path>
                        <path d="M22.7787851,1.51625352 L22.6330786,1.51625352 C17.9801839,8.80593388 8.87514571,12.8816752 0,12.8039186 L0,22.7924006 C8.67763243,24.2276577 18.2813107,22.0828717 24.9967621,16.9023389 L24.9967621,3.8748701 C24.9967621,2.57568706 24.0059578,1.51949337 22.7787851,1.51625352 Z" id="路径" fill="#C68AFF"></path>
                        <path d="M13.7838363,24.8335111 C11.3489185,24.9404264 9.2475068,23.0159508 9.13741743,20.5536588 L9.13741743,18.9499291 C9.13741743,18.6291832 9.47092346,18.4153525 9.69110219,18.4153525 C10.0246082,18.4153525 10.2447869,18.6291832 10.2447869,18.9499291 L10.2447869,20.5536588 C10.3548763,22.3712191 11.9058412,23.8680334 13.7870742,23.7611181 C15.6683072,23.8680334 17.3293615,22.3712191 17.3293615,20.5536588 L17.3293615,16.2770463 C17.3293615,15.9563004 17.5495402,15.7424697 17.8830462,15.7424697 C18.2165523,15.7424697 18.436731,15.9563004 18.436731,16.2770463 L18.436731,20.5536588 C18.4334931,23.012711 16.3288434,24.9404264 13.7838363,24.8335111 L13.7838363,24.8335111 Z" id="路径" fill="#FFFFFF"></path>
                        <path d="M10.0213703,19.4845057 C7.47636317,19.4845057 5.37495143,17.56003 5.37495143,15.3148085 L5.37495143,9.32431115 C5.26486206,9.00356522 5.4850408,8.78973459 5.81854682,8.78973459 C6.15205284,8.78973459 6.37223158,9.00356522 6.37223158,9.32431115 L6.37223158,15.4217238 C6.37223158,17.0254535 8.03328584,18.4153525 10.0246082,18.4153525 C12.0159306,18.4153525 13.5668955,17.0254535 13.5668955,15.3148085 L13.5668955,9.32431115 C13.5668955,9.00356522 13.7870742,8.78973459 14.1205802,8.78973459 C14.4540863,8.78973459 14.674265,9.00356522 14.674265,9.32431115 L14.674265,15.4217238 C14.6710271,17.6669454 12.5663774,19.4845057 10.0213703,19.4845057 L10.0213703,19.4845057 Z M17.9898977,14.6700768 C18.3234037,14.6700768 18.5435824,14.8839074 18.5435824,15.2046533 C18.5435824,15.5253993 18.3234037,15.7392299 17.9898977,15.7392299 C17.6563917,15.7392299 17.4362129,15.5253993 17.4362129,15.2046533 C17.4362129,14.8839074 17.6596296,14.6700768 17.9898977,14.6700768 M17.9898977,13.6009236 C17.1059448,13.6009236 16.3288434,14.3493308 16.3288434,15.2046533 C16.3288434,16.0599758 17.1027069,16.808383 17.9898977,16.808383 C18.8738505,16.808383 19.6509519,16.0599758 19.6509519,15.2046533 C19.6509519,14.3493308 18.8738505,13.6009236 17.9898977,13.6009236 Z" id="形状" fill="#FFFFFF"></path>
                        <path d="M8.03004792,7.72058147 C8.36355394,7.72058147 8.58373268,7.9344121 8.58373268,8.25515803 L8.58373268,10.3934643 C8.58373268,10.7142102 8.36355394,10.9280408 8.03004792,10.9280408 C7.6965419,10.9280408 7.47636317,10.7142102 7.47636317,10.3934643 L7.47636317,8.25515803 C7.47636317,7.9344121 7.69977982,7.72058147 8.03004792,7.72058147 Z M11.9026033,7.72058147 C12.2361093,7.72058147 12.456288,7.9344121 12.456288,8.25515803 L12.456288,10.3934643 C12.456288,10.7142102 12.2361093,10.9280408 11.9026033,10.9280408 C11.5690973,10.9280408 11.3489185,10.7142102 11.3489185,10.3934643 L11.3489185,8.25515803 C11.3489185,7.9344121 11.5723352,7.72058147 11.9026033,7.72058147 Z" id="形状" fill="#FFFFFF"></path>
                    </g>
                </g>
            </g>
        </g>
    </g>
</svg>