<?xml version="1.0" encoding="UTF-8"?>
<svg width="166px" height="98px" viewBox="0 0 166 98" version="1.1" xmlns="http://www.w3.org/2000/svg" xmlns:xlink="http://www.w3.org/1999/xlink">
    <title>医疗</title>
    <defs>
        <linearGradient x1="50%" y1="-27.8233229%" x2="50%" y2="150.610784%" id="linearGradient-1">
            <stop stop-color="#FFFFFF" offset="0%"></stop>
            <stop stop-color="#0000FF" offset="100%"></stop>
        </linearGradient>
        <linearGradient x1="146.444976%" y1="65.7047104%" x2="35.5586533%" y2="47.6298914%" id="linearGradient-2">
            <stop stop-color="#FFFFFF" offset="0%"></stop>
            <stop stop-color="#FFFFFF" offset="100%"></stop>
        </linearGradient>
        <linearGradient x1="152.794063%" y1="78.7749795%" x2="-42.748423%" y2="23.9969213%" id="linearGradient-3">
            <stop stop-color="#FFFFFF" offset="0%"></stop>
            <stop stop-color="#FFFFFF" offset="100%"></stop>
        </linearGradient>
        <linearGradient x1="136.408864%" y1="82.2221291%" x2="-126.754682%" y2="-15.956792%" id="linearGradient-4">
            <stop stop-color="#FFFFFF" offset="0%"></stop>
            <stop stop-color="#FFFFFF" offset="100%"></stop>
        </linearGradient>
        <linearGradient x1="93.8487967%" y1="88.685034%" x2="9.57718031%" y2="10.9055394%" id="linearGradient-5">
            <stop stop-color="#FFFFFF" offset="0%"></stop>
            <stop stop-color="#FFFFFF" offset="100%"></stop>
        </linearGradient>
        <linearGradient x1="107.460571%" y1="90.5441741%" x2="-2.51802401%" y2="3.71818182%" id="linearGradient-6">
            <stop stop-color="#FFFFFF" offset="0%"></stop>
            <stop stop-color="#FFFFFF" offset="100%"></stop>
        </linearGradient>
    </defs>
    <g id="V2.4" stroke="none" stroke-width="1" fill="none" fill-rule="evenodd">
        <g id="血糖趋势" transform="translate(-177.000000, -126.000000)">
            <g id="医疗" transform="translate(177.000000, 126.000000)">
                <path d="M42.7750725,93.3613057 C35.702029,91.8230858 28.4846377,89.0590969 22.6144928,84.8289923 C16.2150725,80.2383673 12.6785507,72.6674413 14.2423188,64.8080991 C15.782029,56.9727916 22.422029,50.4113225 30.2649275,48.9692413 C40.4173913,47.0945358 48.8376812,46.085079 54.5153623,36.4231354 C57.0414493,32.1449614 59.2066667,27.6504752 60.626087,22.8675727 C63.2002899,14.2150859 67.9637681,3.15913051 78.4049275,2.19774309 C84.3472464,1.64494532 90.0971014,4.31279542 94.9808696,7.41326987 C101.308116,11.4030277 106.817391,15.969618 113.962609,18.5172946 C119.39971,20.4641042 125.101449,21.6658384 130.851304,22.0744281 C135.735072,22.4109137 141.1,21.93022 145.671014,24.0452723 C150.193913,26.13629 154.25971,30.4865681 155.67913,35.2935052 C157.916522,42.8163618 151.902029,48.4645129 148.822609,54.6173924 C145.911594,60.4337864 144.468116,66.8991168 143.866667,73.3163779 C143.385507,78.4117312 142.808116,92.5200917 135.855362,93.3613057" id="路径" fill="#F2F5FA" fill-rule="nonzero"></path>
                <path d="M90.0971014,25.7277003 C90.0971014,25.7277003 90.6023188,31.8805798 93.4892754,33.6591466" id="路径" fill="#F2F5FA" fill-rule="nonzero"></path>
                <line x1="93.4892754" y1="33.6591466" x2="95.0771014" y2="36.4471701" id="路径" fill="#F2F5FA" fill-rule="nonzero"></line>
                <polygon id="路径" fill="url(#linearGradient-1)" fill-rule="nonzero" opacity="0.26" points="9.88782609 92.5200917 0 54.1847681 166 54.1847681 154.331884 92.1836061"></polygon>
                <g id="编组" transform="translate(93.983684, 28.697203)" fill-rule="nonzero">
                    <path d="M9.82646088,56.1317892 L2.03167828,51.4930949 C0.0589246527,50.3153953 -0.590640565,47.7677186 0.588200015,45.8209091 L26.7151565,2.02971184 C27.8939971,0.0588676203 30.444142,-0.590068892 32.3928377,0.587630704 L40.1876203,5.22632503 C42.1603739,6.40402463 42.8099391,8.9517013 41.6310986,10.8985108 L15.5282,54.7137427 C14.3493594,56.6605523 11.7992145,57.3094888 9.82646088,56.1317892 Z" id="路径" fill="#FCAA23" opacity="0.39"></path>
                    <path d="M7.94993915,41.3264228 C6.62675074,43.5376139 7.34848987,46.3977415 9.5618232,47.7196492 C11.7751565,49.0415569 14.6380551,48.3205164 15.9612435,46.1093253 C16.8995044,44.523036 16.8032725,42.6002612 15.8409536,41.15818 L22.3366058,30.2704675 C22.3606638,30.2223981 22.3847218,30.1983634 22.4087797,30.150294 L34.4137073,10.0092275 C34.9910986,9.04784005 34.6783449,7.82207108 33.7160261,7.24523862 C32.7537073,6.66840617 31.5267507,6.98085708 30.9493594,7.94224451 L23.1545768,21.0171135 C23.1305189,21.0651829 23.1064609,21.0892175 23.0824029,21.1372869 L12.4006638,39.0671624 C10.6684899,38.8989196 8.91225799,39.7160989 7.94993915,41.3264228 Z" id="路径" fill="#FFFFFF"></path>
                    <path d="M14.7583449,41.1822147 L33.6197942,9.57660313 C33.9325478,9.04784005 33.764142,8.37486885 33.2348667,8.06241793 C32.7055913,7.74996702 32.0319681,7.91820982 31.7192145,8.4469729 L12.8577652,40.0525845 C11.2939971,39.6680295 9.58588117,40.316966 8.69573625,41.7830819 C7.63718552,43.5856833 8.21457683,45.8930131 10.0189247,46.9505393 C11.8232725,48.0080654 14.1328377,47.431233 15.1913884,45.6286316 C16.0815333,44.1865504 15.8409536,42.383949 14.7583449,41.1822147 Z" id="路径" fill="#F2F5FA"></path>
                    <path d="M15.1913884,45.6526663 C14.1328377,47.4552677 11.7992145,48.0321001 10.0189247,46.974574 C8.21457683,45.9170478 7.63718552,43.5856833 8.69573625,41.8071166 C9.5618232,40.3410007 11.2699391,39.6920642 12.8577652,40.0766192 L19.7864609,28.4438313 L21.6870406,29.5734616 L14.7583449,41.1822147 C15.8409536,42.383949 16.0815333,44.1865504 15.1913884,45.6526663 Z" id="路径" fill="#FCAA23" opacity="0.72"></path>
                </g>
                <g id="编组" opacity="0.14" transform="translate(93.983684, 28.697203)" fill="#FFFFFF" fill-rule="nonzero">
                    <path d="M9.82646088,56.1317892 L2.03167828,51.4930949 C0.0589246527,50.3153953 -0.590640565,47.7677186 0.588200015,45.8209091 L26.7151565,2.02971184 C27.8939971,0.0588676203 30.444142,-0.590068892 32.3928377,0.587630704 L40.1876203,5.22632503 C42.1603739,6.40402463 42.8099391,8.9517013 41.6310986,10.8985108 L15.5282,54.7137427 C14.3493594,56.6605523 11.7992145,57.3094888 9.82646088,56.1317892 Z" id="路径" opacity="0.39"></path>
                    <path d="M7.94993915,41.3264228 C6.62675074,43.5376139 7.34848987,46.3977415 9.5618232,47.7196492 C11.7751565,49.0415569 14.6380551,48.3205164 15.9612435,46.1093253 C16.8995044,44.523036 16.8032725,42.6002612 15.8409536,41.15818 L22.3366058,30.2704675 C22.3606638,30.2223981 22.3847218,30.1983634 22.4087797,30.150294 L34.4137073,10.0092275 C34.9910986,9.04784005 34.6783449,7.82207108 33.7160261,7.24523862 C32.7537073,6.66840617 31.5267507,6.98085708 30.9493594,7.94224451 L23.1545768,21.0171135 C23.1305189,21.0651829 23.1064609,21.0892175 23.0824029,21.1372869 L12.4006638,39.0671624 C10.6684899,38.8989196 8.91225799,39.7160989 7.94993915,41.3264228 Z" id="路径"></path>
                    <path d="M14.7583449,41.1822147 L33.6197942,9.57660313 C33.9325478,9.04784005 33.764142,8.37486885 33.2348667,8.06241793 C32.7055913,7.74996702 32.0319681,7.91820982 31.7192145,8.4469729 L12.8577652,40.0525845 C11.2939971,39.6680295 9.58588117,40.316966 8.69573625,41.7830819 C7.63718552,43.5856833 8.21457683,45.8930131 10.0189247,46.9505393 C11.8232725,48.0080654 14.1328377,47.431233 15.1913884,45.6286316 C16.0815333,44.1865504 15.8409536,42.383949 14.7583449,41.1822147 Z" id="路径"></path>
                    <path d="M15.1913884,45.6526663 C14.1328377,47.4552677 11.7992145,48.0321001 10.0189247,46.974574 C8.21457683,45.9170478 7.63718552,43.5856833 8.69573625,41.8071166 C9.5618232,40.3410007 11.2699391,39.6920642 12.8577652,40.0766192 L19.7864609,28.4438313 L21.6870406,29.5734616 L14.7583449,41.1822147 C15.8409536,42.383949 16.0815333,44.1865504 15.1913884,45.6526663 Z" id="路径"></path>
                </g>
                <g id="编组" transform="translate(3.007246, 82.209212)">
                    <path d="M16.9849275,0 L135.470435,0.504728398 C136.288406,0.504728398 137.106377,0.576832455 137.298841,0.672971198 L157.074493,11.2241982 L0,11.6808572" id="路径" fill="#FCAA23" fill-rule="nonzero"></path>
                    <polygon id="路径" stroke="#FF5500" stroke-width="0.5" stroke-linecap="round" stroke-linejoin="round" points="151.30058 9.97439454 6.85652174 10.2628108 19.895942 0.76910994 135.109565 1.1776996"></polygon>
                </g>
                <path d="M3.00724638,93.8900688 L160.081739,93.4334097 L140.306087,82.8821827 C140.137681,82.786044 139.31971,82.7139399 138.477681,82.7139399 L19.9921739,82.2092115 L3.00724638,93.8900688 Z" id="路径" fill="#FCAA23" fill-rule="nonzero"></path>
                <polygon id="路径" stroke="#FF5500" stroke-width="0.5" stroke-linecap="round" stroke-linejoin="round" points="154.307826 92.1836061 9.86376812 92.4720223 22.9031884 82.9783215 138.116812 83.3869111"></polygon>
                <g id="编组" opacity="0.61" transform="translate(9.863768, 82.978321)" fill="#FFFFFF" fill-rule="nonzero">
                    <g id="路径">
                        <polygon points="144.444058 9.2052846 92.6472464 9.30142334 86.2478261 9.32545802 79.7521739 9.32545802 66.8811594 9.34949271 61.3478261 9.3735274 28.9657971 9.44563145 0 9.49370082 13.0394203 0 15.6136232 0 48.2602899 0.120173428 53.8176812 0.144208114 66.8089855 0.192277485 73.3768116 0.216312171 79.8002899 0.240346856 128.253043 0.408589656"></polygon>
                    </g>
                </g>
                <path d="M7.28956522,98 L155.871594,97.6635144 C158.205217,97.6635144 160.105797,95.7647742 160.105797,93.4334097 L160.105797,93.4334097 L3.05513642,93.79393 L3.05513642,93.79393 C3.03130435,96.1012598 4.93188406,98 7.28956522,98 Z" id="路径" fill="#FF7F00" fill-rule="nonzero"></path>
                <polygon id="路径" fill="url(#linearGradient-2)" fill-rule="nonzero" opacity="0.42" points="71.2115942 92.3518489 38.8295652 92.4239529 25.4773913 82.9783215 58.124058 83.0984949"></polygon>
                <polygon id="路径" fill="url(#linearGradient-3)" fill-rule="nonzero" opacity="0.42" points="89.615942 92.3037795 76.7449275 92.3278142 63.6814493 83.1225296 76.6727536 83.170599"></polygon>
                <polygon id="路径" fill="url(#linearGradient-4)" fill-rule="nonzero" opacity="0.42" points="102.511014 92.2797448 96.1115942 92.3037795 83.2405797 83.1946337 89.664058 83.2186683"></polygon>
                <path d="M109.19913,69.1103079 C109.752464,67.7403308 110.402029,66.346319 111.604928,65.4810703 C112.807826,64.6158217 114.684348,64.5437176 115.574493,65.7214172 C115.983478,66.274215 116.127826,66.9952555 116.705217,67.4278799 C116.945797,67.6201574 117.282609,67.7162961 117.571304,67.6201574 C118.004348,67.4999839 118.10058,67.115429 118.172754,66.7549087 C118.533623,64.9763419 118.918551,63.1977752 119.27942,61.4192085 C119.664348,59.6166071 120.121449,57.6697975 121.516812,56.4920979 C121.877681,56.2036817 122.286667,55.9633348 122.743768,55.9152655 C123.128696,55.8671961 123.489565,55.9873695 123.826377,56.1556123 C125.462319,56.9968263 127.435072,56.4680632 128.421449,54.9298434 C129.23942,53.656005 130.129565,52.430236 131.091884,51.2525365 C131.26029,51.060259 131.428696,50.8439468 131.669275,50.7718427 C131.957971,50.675704 132.294783,50.7718427 132.535362,50.9400855 C133.738261,51.7091955 133.521739,53.5358316 132.92029,54.8337046 C132.318841,56.1315776 131.476812,57.5015547 131.861739,58.8715318 C132.102319,59.7127458 132.775942,60.3376476 133.281159,61.0346535 C134.21942,62.2844572 134.70058,63.9909198 134.051014,65.3849316 C132.607536,68.4373367 127.338841,67.6441921 125.726957,70.6244931 C124.548116,72.7876148 127.435072,76.3928176 126.665217,78.7241821 C125.967536,80.8632691 122.166377,82.5216625 120.073333,83.2907724 C117.763768,84.1560211 106.60087,87.833328 105.181449,85.0693391 C104.267246,83.3148071 105.99942,78.9404943 106.48058,77.1619276 C107.226377,74.3979387 108.116522,71.7300886 109.19913,69.1103079 Z" id="路径" fill="#C3D1FF" fill-rule="nonzero"></path>
                <g id="编组" transform="translate(101.885507, 69.367397)" fill-rule="nonzero">
                    <path d="M31.9971014,9.66923567 C28.6289855,11.1353515 18.8373913,13.7791669 11.0666667,16.7113986 C11.0666667,16.7113986 11.0666667,16.7113986 11.0666667,16.7113986 C10.7298551,16.831572 10.3930435,16.9757801 10.0562319,17.0959535 C9.86376812,16.9757801 9.71942029,16.8556067 9.55101449,16.7113986 L5.77391304,16.7113986 C5.67768116,16.7835026 5.5573913,16.8556067 5.46115942,16.9517454 C5.53333333,16.8796414 5.60550725,16.8075373 5.67768116,16.7113986 L4.04173913,16.7113986 C4.42666667,16.3028089 4.83565217,15.8942192 5.26869565,15.4615949 C5.50927536,15.221248 5.77391304,14.9809012 6.01449275,14.7405543 C6.35130435,14.4281034 6.71217391,14.0916178 7.07304348,13.7791669 C7.65043478,13.2744385 8.25188406,12.7456754 8.85333333,12.240947 C8.94956522,12.168843 9.02173913,12.0967389 9.11797101,12.0246349 C9.14202899,12.0006002 9.16608696,12.0006002 9.16608696,11.9765655 C9.16608696,11.9765655 9.19014493,11.9525308 9.19014493,11.9525308 C9.35855072,11.8323574 9.50289855,11.6881493 9.67130435,11.5679758 C9.93594203,11.3516637 10.1765217,11.1593862 10.4411594,10.943074 C10.5855072,10.8229006 10.753913,10.7027271 10.8982609,10.5825537 C11.595942,10.029756 12.3176812,9.50099287 13.0634783,8.97222978 C13.3281159,8.7799523 13.6168116,8.58767481 13.8814493,8.39539733 C14.3866667,8.03487704 14.8918841,7.69839145 15.4211594,7.33787116 C15.8542029,7.04945493 16.2872464,6.76103871 16.7202899,6.47262248 C17.2495652,6.13613688 17.7788406,5.79965128 18.3321739,5.46316568 C18.7892754,5.19878414 19.2463768,4.9344026 19.6794203,4.67002106 C20.6898551,4.0931886 21.6762319,3.56442552 22.6626087,3.05969712 C27.402029,0.704297927 31.7805797,-0.569540411 34.5953623,0.247638901 C40.4895652,2.02620564 37.1214493,7.4340099 31.9971014,9.66923567 Z" id="路径" fill="#FFFFFF"></path>
                    <path d="M0.0962318841,21.9990294 C0.120289855,21.95096 0.120289855,21.9028907 0.144347826,21.8548213 C0.144347826,21.9028907 0.120289855,21.95096 0.0962318841,21.9990294 Z" id="路径" fill="#C3D1FF"></path>
                    <path d="M35.2449275,3.82880706 C35.1968116,3.85284174 25.8142029,6.23227562 16.1669565,11.0151781 C15.757971,11.2314902 15.3489855,11.4237677 14.915942,11.6400799 C14.1701449,12.0246349 13.4002899,12.4332245 12.6544928,12.8418142 C12.2455072,13.082161 11.8124638,13.3225079 11.4034783,13.5628547 C10.8501449,13.8993403 10.2968116,14.2117913 9.74347826,14.5723115 C9.3826087,14.7886237 9.02173913,15.0289706 8.68492754,15.2452827 C8.10753623,15.6298377 7.53014493,16.0143927 6.97681159,16.4229823 C6.83246377,16.5191211 6.71217391,16.6152598 6.56782609,16.7113986 L5.74985507,16.7113986 C6.30318841,16.3028089 6.85652174,15.8942192 7.43391304,15.5096643 C7.81884058,15.2452827 8.17971014,15.0049359 8.56463768,14.7405543 C8.85333333,14.5482768 9.14202899,14.3800341 9.40666667,14.1877566 C9.98405797,13.8272363 10.5373913,13.4907507 11.1147826,13.1542651 C11.5237681,12.9139182 11.9327536,12.6735714 12.3417391,12.4572592 C13.0634783,12.0486695 13.8092754,11.6641146 14.5310145,11.2795596 C14.964058,11.0392127 15.4211594,10.8229006 15.8542029,10.6065884 C16.5037681,10.2701028 17.1533333,9.95765189 17.8028986,9.66923567 C18.0434783,9.54906224 18.3081159,9.42888881 18.5486957,9.33275007 C27.2576812,5.36702694 35.0284058,3.37214803 35.0765217,3.37214803 C35.1968116,3.34811335 35.3411594,3.4202174 35.3652174,3.54039083 C35.4614493,3.66056426 35.3892754,3.78073769 35.2449275,3.82880706 Z" id="路径" fill="#C3D1FF"></path>
                </g>
                <path d="M64.6678261,70.5764237 C63.4408696,69.1343426 62.213913,67.572088 61.9492754,65.6973825 C61.6846377,63.822677 62.7191304,61.6355206 64.5715942,61.299035 C65.4376812,61.1548269 66.3518841,61.4192085 67.193913,61.0346535 C67.5547826,60.8664107 67.8675362,60.5539598 67.9397101,60.1453701 C68.06,59.5685377 67.6750725,59.2320521 67.3142029,58.9436359 C65.5098551,57.47752 63.7055072,55.9873695 61.9011594,54.5212537 C60.0727536,53.0311032 58.124058,51.3486752 57.6188406,49.0413454 C57.4985507,48.4645129 57.4744928,47.8636458 57.6910145,47.310848 C57.8834783,46.8301543 58.1962319,46.4936687 58.6052174,46.2052525 C60.5057971,44.8352754 61.0831884,42.2875987 59.9284058,40.2446504 C58.966087,38.5622224 58.1,36.8076904 57.3301449,35.0291237 C57.2098551,34.7166727 57.0655072,34.4042218 57.1136232,34.0917709 C57.1617391,33.7072159 57.4744928,33.3707303 57.8113043,33.1784529 C59.3991304,32.2651348 61.3478261,33.6110772 62.4544928,35.0531583 C63.5852174,36.4952395 64.6437681,38.2738062 66.424058,38.6343265 C67.5066667,38.8506387 68.6373913,38.4660837 69.72,38.2978409 C71.6927536,37.98539 73.9301449,38.4180143 75.1330435,40.0043036 C77.7553623,43.4412636 73.7376812,48.993276 76.1915942,52.5744442 C77.9718841,55.1942249 83.7698551,54.04056 85.9831884,56.2998204 C88.004058,58.3427687 87.6431884,63.6544342 87.3063768,66.5145618 C86.9214493,69.6631056 84.4915942,84.5165414 80.497971,84.5165414 C77.9718841,84.5165414 74.0023188,79.9499511 72.246087,78.3396272 C69.5515942,75.9361586 67.0255072,73.3404125 64.6678261,70.5764237 Z" id="路径" fill="#9FC3FD" fill-rule="nonzero"></path>
                <path d="M68.9501449,75.9121239 C69.3591304,72.6674413 68.3486957,69.4227588 67.242029,66.346319" id="路径" stroke="#000000" stroke-width="0.5"></path>
                <g id="编组" transform="translate(44.889599, 56.203590)" fill-rule="nonzero">
                    <g transform="translate(0.000000, 1.557124)" id="路径">
                        <path d="M0.1228643,4.6919857 C-0.983802367,-1.55703256 5.63213966,-0.908096048 10.0588063,2.81728022 C14.485473,6.5426565 28.2225744,22.7420346 34.8625744,25.4819888 C37.4367773,26.5635496 36.9796759,26.9481046 35.0069223,26.7798618 C25.0709802,25.8905784 1.63851647,13.2964032 0.1228643,4.6919857 Z" fill="#C3D1FF"></path>
                        <path d="M36.5947484,26.4433762 C36.7631542,26.6596884 36.5466324,26.7798618 35.9932991,26.8038965 C19.489531,22.3094103 2.76924111,2.8653496 2.72112517,2.81728022 C2.62489329,2.72114148 2.64895126,2.55289868 2.74518314,2.45675994 C2.84141502,2.3606212 3.00982082,2.38465588 3.10605271,2.48079463 C3.15416865,2.55289868 20.1150382,22.2613409 36.5947484,26.4433762 Z" fill="#FFFFFF"></path>
                    </g>
                    <g transform="translate(14.564938, 0.000000)" id="路径">
                        <path d="M0.0408250775,3.10056631 C0.738506237,-2.16302984 5.83879609,0.024126554 8.43705696,4.11002311 C11.0353178,8.19591967 17.8677816,24.5635406 22.4628541,28.433125 C24.2431439,29.9232755 23.7860425,30.1395876 22.2463323,29.4906511 C14.5718396,26.2940379 -0.897435792,10.3350067 0.0408250775,3.10056631 Z" fill="#FFFFFF"></path>
                        <path d="M23.5935787,29.6348592 C23.6657526,29.8511714 23.4492309,29.8992408 23.0402454,29.7790674 C11.0353178,22.0398986 2.63908595,2.33145637 2.61502798,2.283387 C2.56691203,2.16321357 2.61502798,2.04304015 2.73531783,1.99497078 C2.85560769,1.9469014 2.97589754,1.99497078 3.02401348,2.1151442 C3.02401348,2.16321357 11.5405352,22.1360373 23.5935787,29.6348592 Z" fill="#C3D1FF"></path>
                    </g>
                </g>
                <g id="编组" transform="translate(61.059130, 50.364936)" fill="#4055EC" fill-rule="nonzero">
                    <path d="M4.25826087,6.89627206 C4.25826087,6.89627206 6.23101449,14.5393021 10.4652174,20.5239388" id="路径"></path>
                    <path d="M0,6.46364772 C0,6.46364772 3.17565217,13.5298453 6.51971014,13.3375678 C6.51971014,13.3616025 5.38898551,7.08854955 0,6.46364772 Z" id="路径"></path>
                    <path d="M1.03449275,0.118490714 C1.03449275,0.118490714 0.866086957,6.27137023 4.83565217,8.79501223 C4.83565217,8.79501223 6.18289855,5.69453778 3.27188406,2.44985522 C0.360869565,-0.79482734 1.03449275,0.118490714 1.03449275,0.118490714 Z" id="路径"></path>
                    <path d="M5.99043478,11.5830358 C5.99043478,11.5830358 5.29275362,7.8336248 8.03536232,6.9924108 C8.03536232,6.9924108 8.85333333,11.1984808 6.27913043,11.871452" id="路径"></path>
                </g>
                <g id="编组" transform="translate(106.038155, 65.138429)">
                    <path d="M17.9085115,4.52467645 C17.5957578,4.66888457 17.2589462,4.78905799 16.9461926,4.95730079 C16.2485115,5.29378639 15.5748883,5.65430668 14.9012651,6.06289633 C14.7809752,6.13500039 14.6847433,6.20710445 14.5644535,6.2792085 C14.179526,6.54359004 13.7945984,6.80797159 13.4096709,7.07235313 C13.313439,7.14445718 13.1931491,7.24059593 13.0969173,7.31269998 C12.7119897,7.60111621 12.3270622,7.91356712 11.9661926,8.22601804 C11.7737289,8.39426084 11.5812651,8.56250364 11.3888013,8.73074644 C11.1963376,8.89898924 11.0279318,9.06723204 10.835468,9.23547483 C10.7392361,9.30757889 10.6670622,9.40371763 10.5708303,9.49985638 C8.64619262,11.3745619 6.98619262,13.5376836 5.51865639,15.8450134 C4.94126509,16.7583314 4.41198972,17.6716495 3.88271436,18.6330369 C3.88271436,18.6330369 3.88271436,18.6330369 3.88271436,18.6330369 C3.78648248,18.8012797 3.69025059,18.9695225 3.61807668,19.1377653 C3.61807668,19.1377653 3.61807668,19.1377653 3.61807668,19.1377653 C3.59401871,19.2098694 3.54590277,19.2579387 3.5218448,19.3300428 C3.44967088,19.4742509 3.37749697,19.618459 3.28126509,19.7626671 C3.16097523,20.003014 3.04068538,20.2433609 2.92039552,20.4837077 C2.89633755,20.5558118 2.84822161,20.6038811 2.82416364,20.6759852 C2.77604769,20.7721239 2.72793175,20.8682627 2.67981581,20.9644014" id="路径" stroke="#4055EC" stroke-width="0.5"></path>
                    <path d="M21.0360477,1.80875698 C21.3969173,1.7606876 21.8059028,1.78472229 22.0464825,2.04910383 C22.2870622,2.31348537 22.2148883,2.74610971 22.0224245,3.03452594 C21.8059028,3.32294217 21.4931491,3.51521965 21.1803955,3.68346245 C20.5308303,4.04398274 16.3928593,6.54359004 17.0183665,4.35643365 C17.4032941,2.9383872 19.7609752,1.95296509 21.0360477,1.80875698 Z" id="路径" fill="#4055EC" fill-rule="nonzero"></path>
                    <path d="M8.93488827,5.00537016 C8.86271436,4.66888457 8.83865639,4.26029491 9.03112016,3.99591337 C9.22358393,3.73153183 9.58445349,3.73153183 9.8250332,3.89977462 C10.0656129,4.06801742 10.2580767,4.35643365 10.4024245,4.64484988 C10.7392361,5.24571702 13.0969173,9.01916266 11.2925694,8.68267706 C10.1618448,8.46636489 9.17546798,6.25517382 8.93488827,5.00537016 Z" id="路径" fill="#4055EC" fill-rule="nonzero"></path>
                    <path d="M0.274018709,17.4553373 C0.105612912,17.2149905 -0.0387349137,16.9265742 0.00938102833,16.6621927 C0.0574969704,16.3978112 0.322134652,16.2776377 0.562714362,16.3257071 C0.803294072,16.3737765 1.01981581,16.5420193 1.23633755,16.6862274 C1.693439,17.022713 4.65256943,19.0656613 3.20909117,19.4021469 C2.31894625,19.6424937 0.851410014,18.320586 0.274018709,17.4553373 Z" id="路径" fill="#4055EC" fill-rule="nonzero"></path>
                    <path d="M12.2067723,1.37613263 C12.2789462,0.775265493 12.5435839,0.07825961 13.1450332,0.00615555313 C13.5059028,-0.0419138181 13.8667723,0.198433038 14.0832941,0.486849266 C14.2998158,0.799300179 14.3960477,1.15982046 14.4682216,1.52034075 C14.7809752,2.84224846 15.1177868,4.21222554 15.0215549,5.55816793 C14.9012651,7.26463061 13.2653231,5.17361296 12.9525694,4.64484988 C12.3751781,3.68346245 12.0864825,2.52979754 12.2067723,1.37613263 Z" id="路径" fill="#4055EC" fill-rule="nonzero"></path>
                    <path d="M3.42561291,10.1968623 C3.25720712,9.69213386 3.23314914,9.01916266 3.69025059,8.75478112 C3.97894625,8.58653832 4.33981581,8.63460769 4.62851146,8.80285049 C4.91720712,8.97109329 5.13372885,9.23547483 5.32619262,9.49985638 C6.07198972,10.4612438 6.81778683,11.4466659 7.2508303,12.5762961 C7.78010567,14.0183773 5.68706219,12.888747 5.22996074,12.5762961 C4.41198972,12.0234984 3.76242451,11.1822844 3.42561291,10.1968623 Z" id="路径" fill="#4055EC" fill-rule="nonzero"></path>
                    <path d="M13.0728593,11.2543884 C13.4577868,11.6389434 13.8186564,12.0475331 14.107352,12.5041921 C14.3719897,12.9608511 14.5403955,13.4415448 14.4441636,13.8741692 C14.4201057,13.9222385 14.4201057,13.9943426 14.3719897,14.0183773 C14.2757578,14.0904813 14.107352,14.042412 13.9870622,13.9943426 C13.0488013,13.657857 12.2308303,12.9608511 11.677497,12.1677065 C11.1241636,11.3745619 10.81141,10.5093132 10.6430042,9.64406449 C10.3061926,8.1298793 12.7601057,10.9179028 13.0728593,11.2543884 Z" id="路径" fill="#4055EC" fill-rule="nonzero"></path>
                    <path d="M15.6230042,8.99512798 C16.0079318,9.37968295 16.3928593,9.76423792 16.6815549,10.1968623 C16.9702506,10.6294866 17.1386564,11.1101803 17.0664825,11.4947353 C17.0664825,11.5428047 17.0424245,11.590874 16.9943086,11.6389434 C16.8980767,11.7110475 16.7537289,11.6629781 16.609381,11.6149087 C15.6711202,11.2784231 14.8531491,10.5814172 14.2757578,9.81230729 C13.6983665,9.04319735 13.3615549,8.20198335 13.1690912,7.40883873 C12.7841636,5.96675759 15.3102506,8.68267706 15.6230042,8.99512798 Z" id="路径" fill="#4055EC" fill-rule="nonzero"></path>
                    <path d="M6.91401871,20.9644014 C6.57720712,21.0845748 6.24039552,21.228783 5.90358393,21.3489564 C5.71112016,21.228783 5.56677233,21.1086095 5.39836654,20.9644014 C5.20590277,20.7721239 5.03749697,20.5558118 4.89314914,20.2914302 C4.74880132,20.0270487 4.65256943,19.7626671 4.55633755,19.4742509 C4.50822161,19.3060081 4.46010567,19.1377653 4.43604769,18.9695225 C4.38793175,18.7291757 4.36387378,18.4888288 4.33981581,18.2484819 C4.33981581,18.2244473 4.33981581,18.2004126 4.33981581,18.1763779 C4.33981581,17.8398923 4.46010567,17.7918229 4.65256943,17.8879617 C4.82097523,17.9841004 5.06155494,18.1763779 5.27807668,18.4167247 C5.39836654,18.5368982 5.49459842,18.6570716 5.61488827,18.777245 C5.83141001,19.0416266 5.99981581,19.2579387 6.07198972,19.3300428 C6.31256943,19.618459 6.57720712,19.9309099 6.72155494,20.2673955 C6.8418448,20.5077424 6.88996074,20.7240546 6.91401871,20.9644014 C6.91401871,20.9644014 6.91401871,20.9644014 6.91401871,20.9644014 Z" id="路径" fill="#4055EC" fill-rule="nonzero"></path>
                    <path d="M8.26126509,16.7342968 C8.54996074,17.1188517 8.83865639,17.5274414 9.03112016,17.936031 C9.22358393,18.3446207 9.31981581,18.8012797 9.19952596,19.1377653 C9.17546798,19.1858347 9.15141001,19.2339041 9.12735204,19.2579387 C9.03112016,19.3060081 8.9108303,19.2339041 8.79054045,19.1858347 C8.02068538,18.7532103 7.37112016,18.0321698 6.96213465,17.2630598 C6.55314914,16.5179846 6.36068538,15.72484 6.28851146,14.9797647 C6.14416364,13.657857 8.02068538,16.3978112 8.26126509,16.7342968 Z" id="路径" fill="#4055EC" fill-rule="nonzero"></path>
                    <path d="M9.63256943,10.4372091 C9.56039552,9.47582169 9.05517813,8.53846895 8.30938103,7.93760181 C8.04474335,7.72128964 7.75604769,7.55304684 7.4192361,7.52901215 C7.08242451,7.50497747 6.72155494,7.67322027 6.60126509,7.98567118 C6.43285929,8.41829552 6.76967088,8.85091986 7.10648248,9.16337078 C7.61169987,9.6200298 8.1650332,10.0286195 8.74242451,10.3651051 C8.9108303,10.4612438 9.10329407,10.5573825 9.31981581,10.5333479 C9.51227958,10.5093132 9.72880132,10.3410704 9.70474335,10.1487929 L9.63256943,10.4372091 Z" id="路径" fill="#4055EC" fill-rule="nonzero"></path>
                    <path d="M4.98938103,16.3978112 C4.91720712,15.4364237 4.41198972,14.499071 3.66619262,13.8982038 C3.40155494,13.6818917 3.11285929,13.5136489 2.77604769,13.4896142 C2.4392361,13.4655795 2.07836654,13.6338223 1.95807668,13.9462732 C1.78967088,14.3788976 2.12648248,14.8115219 2.46329407,15.1239728 C2.96851146,15.5806318 3.5218448,15.9892215 4.0992361,16.3257071 C4.2676419,16.4218458 4.46010567,16.5179846 4.67662741,16.4939499 C4.86909117,16.4699152 5.08561291,16.3016724 5.06155494,16.1093949 L4.98938103,16.3978112 Z" id="路径" fill="#4055EC" fill-rule="nonzero"></path>
                    <path d="M12.0624245,15.340285 C12.2067723,15.5806318 12.3270622,15.8690481 12.1827144,16.1093949 C12.0383665,16.3497418 11.677497,16.3497418 11.3888013,16.253603 C10.6670622,15.9892215 10.2340187,15.3162503 9.8250332,14.6673138 C9.39198972,13.9703079 8.93488827,13.273302 8.52590277,12.5762961 C7.97256943,11.6629781 8.57401871,11.7831515 9.19952596,12.2398105 C10.3783665,13.0569898 11.3406854,14.114516 12.0624245,15.340285 Z" id="路径" fill="#4055EC" fill-rule="nonzero"></path>
                </g>
                <line x1="130.827246" y1="74.6863549" x2="133.112754" y2="70.8888746" id="路径" stroke="#C3D1FF" stroke-width="0.5" stroke-linecap="round"></line>
                <line x1="127.026087" y1="76.2245748" x2="133.112754" y2="76.9696501" id="路径" stroke="#C3D1FF" stroke-width="0.5" stroke-linecap="round"></line>
                <line x1="121.709275" y1="78.4838353" x2="127.795942" y2="79.2529452" id="路径" stroke="#C3D1FF" stroke-width="0.5" stroke-linecap="round"></line>
                <line x1="124.764638" y1="76.9696501" x2="126.28029" y2="73.1721697" id="路径" stroke="#C3D1FF" stroke-width="0.5" stroke-linecap="round"></line>
                <g id="编组" transform="translate(22.851703, 32.759277)" fill-rule="nonzero">
                    <path d="M0.027427677,9.91287717 C0.027427677,10.0330506 0.00336970596,10.153224 0.00336970596,10.2733975 C-0.189094062,17.4116991 7.8943842,30.1981518 16.1943842,25.3912147 C18.5039494,24.069307 20.1158335,21.8340812 21.6074277,19.6228902 C23.4117755,16.9790747 25.1439494,14.1910512 25.7453987,11.0425074 C27.8865581,-0.181690792 14.5343842,-1.8400841 6.90800739,1.59687594 C3.68423927,3.06299177 0.3401813,6.1875009 0.027427677,9.91287717 Z" id="路径" fill="#E2EAF5"></path>
                    <g transform="translate(4.266405, 10.450425)" id="路径">
                        <path d="M8.7523273,3.83676492 L4.18131281,0.447874245 C3.09870411,-0.369305066 1.46276208,-0.0328194672 0.572617153,1.16891481 C-0.317527775,2.3706491 -0.149121977,4.00500772 0.933486718,4.82218703 L5.50450121,8.2110777 C6.97203744,6.84110062 8.05464614,5.13463794 8.7523273,3.83676492 Z" fill="#85A9FF"></path>
                        <path d="M13.4676896,10.6866503 C14.3578345,9.48491604 14.1894287,7.85055742 13.1068201,7.03337811 L8.7523273,3.81273023 C8.05464614,5.11060326 6.97203744,6.81706594 5.50450121,8.18704302 L9.85899396,11.4076909 C10.9656606,12.2248702 12.5775447,11.8883846 13.4676896,10.6866503 Z" fill="#FFFFFF"></path>
                    </g>
                    <g transform="translate(6.620300, 6.142213)" id="路径">
                        <path d="M3.34306974,0.165461181 C5.77292482,-0.507510017 8.2749538,0.934571121 8.94857699,3.36207437 C9.62220018,5.78957762 8.17872192,8.28918492 5.77292482,8.96215612 C3.34306974,9.63512732 0.841040759,8.19304618 0.167417571,5.76554293 C-0.506205617,3.36207437 0.913214672,0.838432378 3.34306974,0.165461181 Z" fill="#F2F5FA"></path>
                        <path d="M8.6117654,3.45821311 C8.01031612,1.27105672 5.79698279,-0.0268163045 3.60770743,0.477912094 L5.84509873,8.57760115 C7.98625815,7.88059527 9.21321467,5.62133482 8.6117654,3.45821311 Z" fill="#C3D1FF"></path>
                        <path d="M5.46017119,8.67373989 L3.22277989,0.574050836 C1.10567844,1.27105672 -0.121278081,3.50628248 0.480171194,5.66940419 C1.10567844,7.85656058 3.2949538,9.15443361 5.46017119,8.67373989 Z" fill="#FFFFFF"></path>
                    </g>
                    <g transform="translate(10.947293, 1.522321)" id="路径">
                        <path d="M7.74911984,6.92444026 L10.4676706,12.5966261 C11.1172358,13.9425685 10.5398445,15.5769271 9.1925981,16.2258636 C7.84535173,16.8748001 6.2094097,16.2979677 5.55984448,14.9520253 L2.84129376,9.30387414 C4.45317781,8.07810517 6.32969955,7.33302992 7.74911984,6.92444026 Z" fill="#C3D1FF"></path>
                        <path d="M1.66245318,0.5071792 C3.00969955,-0.141757312 4.64564158,0.435075143 5.2952068,1.78101754 L7.8694097,7.16478712 C6.44998941,7.57337677 4.57346767,8.31845203 2.96158361,9.52018631 L0.387380712,4.13641673 C-0.262184505,2.76643965 0.315206799,1.15611571 1.66245318,0.5071792 Z" fill="#FFFFFF"></path>
                        <path d="M1.54216332,0.266832344 C2.8894097,-0.382104168 4.52535173,0.194728287 5.17491694,1.54067068 L7.74911984,6.92444026 C6.32969955,7.33302992 4.45317781,8.07810517 2.84129376,9.27983945 L0.267090857,3.89606987 C-0.38247436,2.55012748 0.194916944,0.915768855 1.54216332,0.266832344 Z" fill="#FFFFFF"></path>
                    </g>
                </g>
                <g id="编组" transform="translate(54.560109, 0.000000)" fill-rule="nonzero">
                    <path d="M0.027427677,9.91287717 C0.027427677,10.0330506 0.00336970596,10.153224 0.00336970596,10.2733975 C-0.189094062,17.4116991 7.8943842,30.1981518 16.1943842,25.3912147 C18.5039494,24.069307 20.1158335,21.8340812 21.6074277,19.6228902 C23.4117755,16.9790747 25.1439494,14.1910512 25.7453987,11.0425074 C27.8865581,-0.181690792 14.5343842,-1.8400841 6.90800739,1.59687594 C3.68423927,3.06299177 0.316123329,6.1875009 0.027427677,9.91287717 Z" id="路径" fill="#E2EAF5"></path>
                    <path d="M18.1671378,9.93691186 C17.3972827,7.82185952 15.3764132,6.33170901 12.9946741,6.33170901 L12.9946741,6.33170901 C12.9946741,6.33170901 12.9946741,6.33170901 12.9946741,6.33170901 C9.96336971,6.33170901 7.48539869,8.78324695 7.48539869,11.835652 C7.48539869,14.8640224 9.93931173,17.339595 12.9946741,17.339595 C12.9946741,17.339595 12.9946741,17.339595 12.9946741,17.339595 L12.9946741,17.339595 C13.018732,17.339595 13.066848,17.339595 13.0909059,17.339595 C13.1390219,17.339595 13.2111958,17.339595 13.2593117,17.339595 C13.2593117,17.339595 13.2593117,17.339595 13.2593117,17.339595 C15.9778625,17.1953869 18.1671378,15.0803346 18.4558335,12.4124845 C18.4798914,12.220207 18.4798914,12.0519642 18.4798914,11.8596867 C18.5039494,11.1626808 18.3836596,10.5137443 18.1671378,9.93691186 Z" id="路径" fill="#FFFFFF"></path>
                    <g transform="translate(7.533515, 6.355744)" fill="#E2EAF5" id="形状">
                        <path d="M5.46115942,2.95626633 C7.14521739,2.95626633 8.68492754,3.22064787 9.81565217,3.65327222 C10.2005797,3.79748033 10.5373913,3.96572313 10.826087,4.15800061 C10.8501449,4.30220873 10.8982609,4.44641684 10.9223188,4.59062496 C10.6336232,4.3502781 10.2246377,4.10993124 9.71942029,3.91765376 C8.63681159,3.5090641 7.14521739,3.24468256 5.48521739,3.24468256 C3.82521739,3.24468256 2.33362319,3.5090641 1.25101449,3.91765376 C0.745797101,4.10993124 0.336811594,4.32624341 0.048115942,4.59062496 C0.072173913,4.44641684 0.0962318841,4.30220873 0.144347826,4.15800061 C0.433043478,3.96572313 0.769855072,3.79748033 1.15478261,3.65327222 C2.2373913,3.22064787 3.77710145,2.95626633 5.46115942,2.95626633 L5.46115942,2.95626633 Z M10.826087,6.75374666 C10.5373913,6.94602415 10.2005797,7.11426695 9.81565217,7.25847506 C8.70898551,7.6910994 7.16927536,7.95548094 5.46115942,7.95548094 C3.77710145,7.95548094 2.2373913,7.6910994 1.10666667,7.25847506 C0.72173913,7.11426695 0.384927536,6.94602415 0.0962318841,6.75374666 C0.072173913,6.60953855 0.024057971,6.46533043 0,6.32112232 C0.288695652,6.56146918 0.697681159,6.80181603 1.20289855,6.99409352 C2.28550725,7.40268317 3.77710145,7.66706472 5.43710145,7.66706472 C7.09710145,7.66706472 8.58869565,7.40268317 9.67130435,6.99409352 C10.1765217,6.80181603 10.5855072,6.58550386 10.8742029,6.32112232 C10.8742029,6.46533043 10.8501449,6.60953855 10.826087,6.75374666 Z"></path>
                        <path d="M2.95913043,5.45587364 C2.95913043,3.77344564 3.22376812,2.23522576 3.65681159,1.10559554 C3.80115942,0.721040569 3.96956522,0.38455497 4.16202899,0.0961387425 C4.30637681,0.0721040569 4.45072464,0.0240346856 4.59507246,0 C4.35449275,0.288416228 4.11391304,0.697005883 3.92144928,1.20173428 C3.51246377,2.28329513 3.24782609,3.77344564 3.24782609,5.43183895 C3.24782609,7.09023226 3.51246377,8.58038277 3.92144928,9.66194362 C4.11391304,10.166672 4.33043478,10.5752617 4.59507246,10.8636779 C4.45072464,10.8396432 4.30637681,10.8156085 4.16202899,10.7675392 C3.96956522,10.4791229 3.80115942,10.1426373 3.65681159,9.75808237 C3.24782609,8.7005562 2.95913043,7.16233632 2.95913043,5.45587364 L2.95913043,5.45587364 Z M6.76028986,0.120173428 C6.95275362,0.408589656 7.12115942,0.745075254 7.26550725,1.12963022 C7.69855072,2.23522576 7.96318841,3.77344564 7.96318841,5.47990832 C7.96318841,7.16233632 7.69855072,8.7005562 7.26550725,9.83018642 C7.12115942,10.2147414 6.95275362,10.551227 6.76028986,10.8396432 C6.61594203,10.8636779 6.4715942,10.9117473 6.32724638,10.935782 C6.56782609,10.6473657 6.8084058,10.2387761 7.00086957,9.73404768 C7.40985507,8.65248683 7.67449275,7.16233632 7.67449275,5.50394301 C7.67449275,3.8455497 7.40985507,2.35539919 7.00086957,1.27383834 C6.8084058,0.76910994 6.59188406,0.360520284 6.32724638,0.0721040569 C6.4715942,0.0480693713 6.61594203,0.0961387425 6.76028986,0.120173428 Z"></path>
                    </g>
                    <g transform="translate(12.994674, 6.421297)" fill="#E2EAF5">
                        <path d="M0,2.89071275 C1.68405797,2.89071275 3.22376812,3.15509429 4.35449275,3.58771863 C4.73942029,3.73192675 5.07623188,3.90016954 5.36492754,4.09244703 C5.38898551,4.23665514 5.43710145,4.38086326 5.46115942,4.52507137 C5.17246377,4.28472451 4.76347826,4.04437766 4.25826087,3.85210017 C3.17565217,3.44351052 1.68405797,3.17912898 0.024057971,3.17912898 L0.024057971,2.89071275 L0,2.89071275 Z M5.36492754,6.68819308 C5.07623188,6.88047056 4.73942029,7.04871336 4.35449275,7.19292148 C3.24782609,7.62554582 1.70811594,7.88992736 0,7.88992736 L0,7.60151113 C1.66,7.60151113 3.1515942,7.33712959 4.2342029,6.92853993 C4.73942029,6.73626245 5.1484058,6.51995028 5.43710145,6.25556874 C5.41304348,6.39977685 5.38898551,6.54398496 5.36492754,6.68819308 Z" id="形状"></path>
                        <path d="M1.29913043,0.0546198442 C1.4915942,0.343036072 1.66,0.679521671 1.80434783,1.06407664 C2.2373913,2.16967218 2.50202899,3.70789206 2.50202899,5.41435474 C2.50202899,7.09678273 2.2373913,8.63500261 1.80434783,9.76463284 C1.66,10.1491878 1.4915942,10.4856734 1.29913043,10.7740896 C1.15478261,10.7981243 1.01043478,10.8461937 0.866086957,10.8702284 C1.10666667,10.5818121 1.34724638,10.1732225 1.53971014,9.6684941 C1.94869565,8.58693324 2.21333333,7.09678273 2.21333333,5.43838942 C2.21333333,3.77999612 1.94869565,2.28984561 1.53971014,1.20828475 C1.34724638,0.703556356 1.13072464,0.294966701 0.866086957,0.00655047297 C1.01043478,-0.0174842127 1.15478261,0.0305851586 1.29913043,0.0546198442 Z" id="路径"></path>
                    </g>
                    <g transform="translate(10.155833, 8.975524)" fill="#85A9FF" id="路径">
                        <path d="M0.625507246,0.0240346856 C0.962318841,0.0240346856 1.25101449,0.288416228 1.25101449,0.648936512 C1.25101449,1.0094568 0.986376812,1.27383834 0.625507246,1.27383834 C0.288695652,1.27383834 0,1.0094568 0,0.648936512 C0,0.288416228 0.288695652,0.0240346856 0.625507246,0.0240346856 Z"></path>
                        <g transform="translate(4.450725, 0.000000)">
                            <path d="M0.649565217,0 C0.986376812,0 1.27507246,0.264381542 1.27507246,0.624901826 C1.27507246,0.985422111 1.01043478,1.24980365 0.649565217,1.24980365 C0.312753623,1.24980365 0.024057971,0.985422111 0.024057971,0.624901826 C0.024057971,0.264381542 0.288695652,0 0.649565217,0 Z"></path>
                            <path d="M0.625507246,4.44641684 C0.962318841,4.44641684 1.25101449,4.71079838 1.25101449,5.07131867 C1.25101449,5.40780427 0.986376812,5.69622049 0.625507246,5.69622049 C0.288695652,5.69622049 0,5.43183895 0,5.07131867 C0,4.73483307 0.288695652,4.44641684 0.625507246,4.44641684 Z"></path>
                        </g>
                        <path d="M0.649565217,4.42238216 C0.986376812,4.42238216 1.27507246,4.6867637 1.27507246,5.04728398 C1.27507246,5.38376958 1.01043478,5.67218581 0.649565217,5.67218581 C0.312753623,5.67218581 0.024057971,5.40780427 0.024057971,5.04728398 C0.024057971,4.71079838 0.312753623,4.42238216 0.649565217,4.42238216 Z"></path>
                    </g>
                    <path d="M9.77090594,17.8923928 C9.16945666,17.5799419 8.61612333,17.1713522 8.13496391,16.6906585 C6.88394942,15.4408549 6.11409434,13.7343922 6.11409434,11.835652 L6.11409434,11.835652 C6.11409434,9.93691186 6.88394942,8.23044918 8.13496391,6.98064553 C8.76047116,6.3557437 9.53032623,5.82698061 10.3723552,5.49049502 L10.516703,5.73084187 C9.69873202,6.06732747 8.95293492,6.57205587 8.32742768,7.17292301 C7.12452913,8.37465729 6.40279,10.0090159 6.40279,11.835652 L6.40279,11.835652 C6.40279,13.6622881 7.1485871,15.3206814 8.32742768,16.498381 C8.78452913,16.9550401 9.33786246,17.3636297 9.91525376,17.6760806 L9.77090594,17.8923928 L9.77090594,17.8923928 Z M8.35148565,20.2237573 L8.49583347,19.9834105 C7.7259784,19.5507861 7.02829724,19.022023 6.40279,18.4211559 C4.71873202,16.7387279 3.6601813,14.4073634 3.6601813,11.835652 L3.6601813,11.835652 C3.6601813,9.26394066 4.69467405,6.93257615 6.40279,5.25014816 C7.17264507,4.48103822 8.08684797,3.85613639 9.07322478,3.37544268 L8.92887695,3.13509582 C7.91844217,3.61578954 6.9801813,4.26472605 6.21032623,5.03383599 C4.47815231,6.76433335 3.39554362,9.16780192 3.39554362,11.8116173 L3.39554362,11.8116173 C3.39554362,14.4554328 4.47815231,16.8589013 6.21032623,18.5893987 C6.85989145,19.2383352 7.5575726,19.7670983 8.35148565,20.2237573 L8.35148565,20.2237573 Z M9.04916681,19.0700924 L9.19351463,18.8297455 C8.51989145,18.4692253 7.8943842,17.9885315 7.34105087,17.4597685 C5.8975726,16.0176873 5.00742768,14.0228084 5.00742768,11.8116173 L5.00742768,11.8116173 C5.00742768,9.60042626 5.8975726,7.60554735 7.34105087,6.16346621 C8.03873202,5.46646033 8.85670304,4.88962788 9.77090594,4.50507291 L9.62655811,4.26472605 C8.68829724,4.6733157 7.84626826,5.25014816 7.1485871,5.97118873 C5.65699289,7.46133924 4.71873202,9.5283222 4.71873202,11.8116173 L4.71873202,11.8116173 C4.71873202,14.0949125 5.63293492,16.1618954 7.1485871,17.6520459 C7.7259784,18.2288784 8.35148565,18.6855374 9.04916681,19.0700924 Z" id="形状" fill="#FFFFFF"></path>
                    <path d="M16.2184422,17.8923928 C16.8198914,17.5799419 17.3732248,17.1713522 17.8543842,16.6906585 C19.1053987,15.4408549 19.8752538,13.7343922 19.8752538,11.835652 L19.8752538,11.835652 C19.8752538,9.93691186 19.1053987,8.23044918 17.8543842,6.98064553 C17.228877,6.3557437 16.4590219,5.82698061 15.6169929,5.49049502 L15.4726451,5.73084187 C16.2906161,6.06732747 17.0364132,6.57205587 17.6619204,7.17292301 C18.864819,8.37465729 19.5865581,10.0090159 19.5865581,11.835652 L19.5865581,11.835652 C19.5865581,13.6622881 18.840761,15.3206814 17.6619204,16.498381 C17.204819,16.9550401 16.6514856,17.3636297 16.0740943,17.6760806 L16.2184422,17.8923928 L16.2184422,17.8923928 Z M17.6619204,20.2237573 L17.5175726,19.9834105 C18.2874277,19.5507861 18.9851088,19.022023 19.6106161,18.4211559 C21.2946741,16.7387279 22.3532248,14.4073634 22.3532248,11.835652 L22.3532248,11.835652 C22.3532248,9.26394066 21.318732,6.93257615 19.6106161,5.25014816 C18.840761,4.48103822 17.9265581,3.85613639 16.9401813,3.37544268 L17.0845291,3.13509582 C18.0949639,3.61578954 19.0332248,4.26472605 19.8030799,5.03383599 C21.5352538,6.76433335 22.6178625,9.16780192 22.6178625,11.8116173 L22.6178625,11.8116173 C22.6178625,14.4554328 21.5352538,16.8589013 19.8030799,18.5893987 C19.1535146,19.2383352 18.4317755,19.7670983 17.6619204,20.2237573 L17.6619204,20.2237573 Z M16.9642393,19.0700924 L16.8198914,18.8297455 C17.4935146,18.4692253 18.1190219,17.9885315 18.6723552,17.4597685 C20.1158335,16.0176873 21.0059784,14.0228084 21.0059784,11.8116173 L21.0059784,11.8116173 C21.0059784,9.60042626 20.1158335,7.60554735 18.6723552,6.16346621 C17.9746741,5.46646033 17.156703,4.88962788 16.2425001,4.50507291 L16.386848,4.26472605 C17.3251088,4.6733157 18.1671378,5.25014816 18.864819,5.97118873 C20.3564132,7.46133924 21.2946741,9.5283222 21.2946741,11.8116173 L21.2946741,11.8116173 C21.2946741,14.0949125 20.3804712,16.1618954 18.864819,17.6520459 C18.2874277,18.2288784 17.6619204,18.6855374 16.9642393,19.0700924 Z" id="形状" fill="#FFFFFF"></path>
                </g>
                <g id="编组" transform="translate(103.905867, 5.774980)" fill-rule="nonzero">
                    <path d="M1.99732147,3.27264876 C1.94920553,3.34475281 1.87703162,3.44089156 1.82891567,3.51299561 C-1.37079447,8.70448771 -0.865577079,21.6591833 7.33819104,21.635182 C9.62369828,21.635182 11.7648577,20.6737612 13.8338432,19.688339 C16.2877563,18.4866048 18.7897852,17.164697 20.5700751,15.0977141 C26.9694954,7.7190656 17.8034084,0.749006765 10.682249,0.0520008819 C7.65094466,-0.236415346 3.82572727,0.652868023 1.99732147,3.27264876 Z" id="路径" fill="#E2EAF5"></path>
                    <path d="M13.7135534,8.60834897 L13.3767418,8.51221022 L11.3558722,7.8873084 L9.33500263,7.26240657 L8.99819104,7.16626783 C7.60282872,6.73364349 6.54427799,7.02205971 6.27964031,7.91134308 L4.69181423,12.9586271 C4.40311857,13.8479104 5.24514756,14.3045695 6.64050988,14.7371938 L8.99819104,15.4822691 L11.3558722,16.2273443 C12.7512345,16.6599687 13.6894954,16.7561074 13.978191,15.866824 L15.5660171,10.81954 C15.8306548,9.8821873 15.1089157,9.04097331 13.7135534,8.60834897 Z M12.6068867,14.2565001 L9.64775625,13.343182 L6.68862582,12.429864 L8.01181423,8.223794 L10.9709447,9.13711205 L13.9300751,10.0504301 L12.6068867,14.2565001 Z" id="形状" fill="#FFFFFF"></path>
                    <path d="M6.9532635,12.501968 L8.27645191,8.29589805 L10.9709447,9.13711205 L11.3558722,7.86327371 L9.33500263,7.23837188 L8.99819104,7.14223314 C7.60282872,6.7096088 6.54427799,6.99802503 6.27964031,7.8873084 L4.69181423,12.9345924 C4.40311857,13.8238757 5.24514756,14.2805348 6.64050988,14.7131591 L8.99819104,15.4582344 L9.64775625,13.343182 L6.9532635,12.501968 Z" id="路径" fill="#C3D1FF"></path>
                    <path d="M13.7135534,8.60834897 L13.3767418,8.51221022 L11.3558722,7.8873084 L10.9709447,9.16114674 L13.6654374,10.0023607 L12.342249,14.2084307 L9.64775625,13.3672167 L8.99819104,15.4822691 L11.3558722,16.2273443 C12.7512345,16.6599687 13.6894954,16.7561074 13.978191,15.866824 L15.5660171,10.81954 C15.8306548,9.8821873 15.1089157,9.04097331 13.7135534,8.60834897 Z" id="路径" fill="#85A9FF"></path>
                    <path d="M14.4834084,4.95507675 L12.4625389,4.33017492 L10.4416693,3.7052731 C10.0567418,3.58509967 9.67181423,3.80141184 9.55152437,4.16193212 L8.87790118,6.34908852 C8.75761133,6.7096088 8.97413307,7.11819846 9.33500263,7.23837188 L11.3558722,7.86327371 L13.3767418,8.48817554 C13.7376113,8.60834897 14.1465968,8.39203679 14.2668867,8.03151651 L14.9405099,5.84436012 C15.0607997,5.48383983 14.868336,5.07525018 14.4834084,4.95507675 Z" id="路径" fill="#FFFFFF"></path>
                    <path d="M13.3767418,8.51221022 C13.7376113,8.63238365 14.1465968,8.41607148 14.2668867,8.0555512 L14.9405099,5.8683948 C15.0607997,5.50787452 14.844278,5.09928486 14.4834084,4.97911144 L12.4625389,4.35420961 L11.3558722,7.8873084 L13.3767418,8.51221022 Z" id="路径" fill="#FFFFFF"></path>
                    <path d="M12.4625389,4.33017492 L10.4416693,3.7052731 C10.0567418,3.58509967 9.67181423,3.80141184 9.55152437,4.16193212 L8.87790118,6.34908852 C8.75761133,6.7096088 8.97413307,7.11819846 9.33500263,7.23837188 L11.3558722,7.86327371 L12.4625389,4.33017492 Z" id="路径" fill="#FFFFFF"></path>
                    <polygon id="矩形" fill="#FFFFFF" transform="translate(8.920285, 10.802743) rotate(-72.655888) translate(-8.920285, -10.802743) " points="6.70857613 9.34679991 11.1311928 9.34801905 11.1319945 12.2586869 6.70937784 12.2574678"></polygon>
                    <polygon id="矩形" fill="#FFFFFF" transform="translate(8.920285, 10.802743) rotate(-72.655888) translate(-8.920285, -10.802743) " points="6.70857613 9.34679991 11.1311928 9.34801905 11.1319945 12.2586869 6.70937784 12.2574678"></polygon>
                    <polygon id="矩形" fill="#FFFFFF" transform="translate(11.707502, 11.661030) rotate(-72.650419) translate(-11.707502, -11.661030) " points="9.49572694 10.2050434 13.9184757 10.206263 13.9192777 13.1170174 9.4965289 13.1157979"></polygon>
                    <g transform="translate(8.797048, 9.599816)" fill="#C3D1FF" id="矩形">
                        <polygon transform="translate(1.526075, 1.554091) rotate(-72.650419) translate(-1.526075, -1.554091) " points="0.0237194834 1.32514604 3.02830424 1.32597452 3.02843016 1.78303513 0.0238454113 1.78220666"></polygon>
                        <polygon transform="translate(1.554640, 1.561033) rotate(-72.644950) translate(-1.554640, -1.561033) " points="1.32587043 0.0574363817 1.78258096 0.0575623481 1.78340968 3.06462963 1.32669915 3.06450367"></polygon>
                    </g>
                </g>
                <path d="M44.7718841,89.9003109 L32.8872464,89.9003109 C32.7910145,89.9003109 32.6947826,89.8041722 32.6947826,89.7080335 L32.6947826,88.4101604 C32.6947826,88.3140217 32.7910145,88.2178829 32.8872464,88.2178829 L44.7718841,88.2178829 C44.8681159,88.2178829 44.9643478,88.3140217 44.9643478,88.4101604 L44.9643478,89.7080335 C44.9643478,89.8041722 44.8681159,89.9003109 44.7718841,89.9003109 Z" id="路径" fill="#4052F2" fill-rule="nonzero" opacity="0.15"></path>
                <path d="M77.3944928,91.5827389 L67.1217391,91.5827389 C67.0255072,91.5827389 66.9292754,91.4866002 66.9292754,91.3904615 L66.9292754,90.0925884 C66.9292754,89.9964497 67.0255072,89.9003109 67.1217391,89.9003109 L77.3944928,89.9003109 C77.4907246,89.9003109 77.5869565,89.9964497 77.5869565,90.0925884 L77.5869565,91.3904615 C77.5869565,91.4866002 77.5147826,91.5827389 77.3944928,91.5827389 Z" id="路径" fill="#4052F2" fill-rule="nonzero" opacity="0.15"></path>
                <path d="M70.8988406,90.2367965 L46.7686957,90.2367965 C46.6724638,90.2367965 46.5762319,90.1406578 46.5762319,90.0445191 L46.5762319,88.746646 C46.5762319,88.6505073 46.6724638,88.5543685 46.7686957,88.5543685 L70.8988406,88.5543685 C70.9950725,88.5543685 71.0913043,88.6505073 71.0913043,88.746646 L71.0913043,90.0445191 C71.0913043,90.1406578 70.9950725,90.2367965 70.8988406,90.2367965 Z" id="路径" fill="#4052F2" fill-rule="nonzero" opacity="0.15"></path>
                <g id="编组" transform="translate(43.232174, 63.942850)" fill-rule="nonzero">
                    <polygon id="路径" fill="#FF7F00" points="5.22057971 24.8278303 3.05536232 24.8278303 3.05536232 25.4527321 4.13797101 25.4527321"></polygon>
                    <polygon id="路径" fill="#FF7F00" points="23.6249275 24.8278303 25.7901449 24.8278303 25.7901449 25.4527321 24.7075362 25.4527321"></polygon>
                    <rect id="矩形" fill="#FDA118" x="2.47797101" y="23.4578532" width="23.6249275" height="1.36997708"></rect>
                    <path d="M28.6049275,5.81639392 L28.6049275,21.4149049 C28.6049275,22.8089167 27.4982609,23.9385469 26.1269565,23.9625816 C26.1028986,23.9625816 26.0788406,23.9625816 26.0547826,23.9625816 L2.55014493,23.9625816 C2.52608696,23.9625816 2.50202899,23.9625816 2.47797101,23.9625816 C1.10666667,23.9385469 0,22.8089167 0,21.4149049 L0,5.81639392 C0,4.39834747 1.13072464,3.26871725 2.55014493,3.26871725 L26.0547826,3.26871725 C27.4742029,3.26871725 28.6049275,4.39834747 28.6049275,5.81639392 Z" id="路径" fill="#FDA118"></path>
                    <path d="M27.8831884,21.5350783 C27.8831884,22.8810207 26.8005797,23.9625816 25.4533333,23.9625816 L3.12753623,23.9625816 C1.78028986,23.9625816 0.697681159,22.8810207 0.697681159,21.5350783 L0.697681159,6.75374666 C0.697681159,5.40780427 1.78028986,4.32624341 3.12753623,4.32624341 L25.4533333,4.32624341 C26.8005797,4.32624341 27.8831884,5.40780427 27.8831884,6.75374666 L27.8831884,21.5350783 Z" id="路径" fill="#FF7F00"></path>
                    <path d="M27.8831884,21.5350783 C27.8831884,22.8810207 26.8005797,23.9625816 25.4533333,23.9625816 L3.12753623,23.9625816 C1.78028986,23.9625816 0.697681159,22.8810207 0.697681159,21.5350783 L0.697681159,6.75374666 C0.697681159,5.40780427 1.78028986,4.32624341 3.12753623,4.32624341 L25.4533333,4.32624341 C26.8005797,4.32624341 27.8831884,5.40780427 27.8831884,6.75374666 L27.8831884,21.5350783 Z" id="路径" fill="#FFFFFF" opacity="0.89"></path>
                    <path d="M21.4837681,13.916083 C21.4837681,17.8818061 18.26,21.102454 14.2904348,21.102454 C10.3208696,21.102454 7.09710145,17.8818061 7.09710145,13.916083 C7.09710145,9.95035985 10.3208696,6.72971198 14.2904348,6.72971198 C18.284058,6.72971198 21.4837681,9.95035985 21.4837681,13.916083 Z" id="路径" fill="#FCAA23"></path>
                    <path d="M8.27594203,3.62923753 C8.27594203,3.94168844 8.01130435,4.20606998 7.67449275,4.20606998 L4.49884058,4.20606998 C4.16202899,4.20606998 3.8973913,3.94168844 3.8973913,3.62923753 L3.8973913,3.62923753 C3.8973913,3.31678662 4.16202899,3.05240507 4.49884058,3.05240507 L7.67449275,3.05240507 C8.01130435,3.07643976 8.27594203,3.31678662 8.27594203,3.62923753 L8.27594203,3.62923753 Z" id="路径" fill="#FFFFFF"></path>
                    <path d="M8.27594203,3.65327222 C8.27594203,3.65327222 8.27594203,3.62923753 8.27594203,3.62923753 C8.27594203,3.31678662 8.01130435,3.05240507 7.67449275,3.05240507 L4.49884058,3.05240507 C4.16202899,3.05240507 3.8973913,3.31678662 3.8973913,3.62923753 C3.8973913,3.62923753 3.8973913,3.65327222 3.8973913,3.65327222 L8.27594203,3.65327222 Z" id="路径" fill="#FDA118"></path>
                    <path d="M24.924058,3.62923753 C24.924058,3.62923753 24.924058,3.65327222 24.924058,3.62923753 C24.924058,3.94168844 24.6353623,4.20606998 24.3226087,4.20606998 L21.1469565,4.20606998 C20.8101449,4.20606998 20.5455072,3.96572313 20.5455072,3.65327222 C20.5455072,3.65327222 20.5455072,3.65327222 20.5455072,3.65327222 C20.5455072,3.5090641 20.5936232,3.38889067 20.6898551,3.29275193 C20.8101449,3.1725785 20.9544928,3.10047445 21.1469565,3.10047445 L24.3226087,3.10047445 C24.3707246,3.10047445 24.4188406,3.10047445 24.4910145,3.12450913 C24.6113043,3.14854382 24.7075362,3.22064787 24.8037681,3.29275193 C24.875942,3.36485599 24.924058,3.48502942 24.924058,3.62923753 Z" id="路径" fill="#FFFFFF"></path>
                    <path d="M24.924058,3.62923753 C24.924058,3.62923753 24.924058,3.65327222 24.924058,3.62923753 C24.924058,3.65327222 24.924058,3.65327222 24.924058,3.65327222 L20.5214493,3.65327222 C20.5214493,3.65327222 20.5214493,3.65327222 20.5214493,3.62923753 C20.5214493,3.62923753 20.5214493,3.62923753 20.5214493,3.62923753 C20.5214493,3.48502942 20.5695652,3.36485599 20.6657971,3.26871725 C20.786087,3.14854382 20.9304348,3.07643976 21.1228986,3.07643976 L24.2985507,3.07643976 C24.3466667,3.07643976 24.3947826,3.07643976 24.4669565,3.10047445 C24.5872464,3.12450913 24.6834783,3.19661319 24.7797101,3.26871725 C24.875942,3.36485599 24.924058,3.48502942 24.924058,3.62923753 Z" id="路径" fill="#FDA118"></path>
                    <rect id="矩形" fill="#FF7F00" x="9.14202899" y="3.26871725" width="10.4411594" height="1"></rect>
                    <path d="M10.3689855,3.60520284 L10.3689855,2.28329513 C10.3689855,1.61032394 10.9223188,1.05752617 11.595942,1.05752617 L17.1292754,1.05752617 C17.8028986,1.05752617 18.3562319,1.61032394 18.3562319,2.28329513 L18.3562319,3.60520284 L19.1501449,3.60520284 L19.1501449,1.49015051 C19.1501449,0.672971198 18.4765217,0 17.6585507,0 L11.0185507,0 C10.2005797,0 9.52695652,0.672971198 9.52695652,1.49015051 L9.52695652,3.60520284 L10.3689855,3.60520284 Z" id="路径" fill="#FCAA23"></path>
                    <path d="M10.753913,3.60520284 L10.753913,2.47557262 C10.753913,1.87470548 11.2591304,1.41804645 11.8846377,1.41804645 L16.9127536,1.41804645 C17.5382609,1.41804645 18.0434783,1.89874016 18.0434783,2.47557262 L18.0434783,3.60520284 L18.7652174,3.60520284 L18.7652174,1.77856674 C18.7652174,1.08156085 18.1637681,0.504728398 17.417971,0.504728398 L11.4034783,0.504728398 C10.6576812,0.504728398 10.0562319,1.08156085 10.0562319,1.77856674 L10.0562319,3.60520284 L10.753913,3.60520284 Z" id="路径" fill="#FF7F00"></path>
                    <path d="M14.3144928,6.72971198 C14.3144928,6.72971198 14.3144928,6.72971198 14.3144928,6.72971198 C10.3208696,6.72971198 7.09710145,9.95035985 7.09710145,13.916083 C7.09710145,17.8818061 10.3208696,21.102454 14.2904348,21.102454 C14.2904348,21.102454 14.2904348,21.102454 14.3144928,21.102454 L14.3144928,6.72971198 Z" id="路径" fill="#FF7F00"></path>
                    <path d="M17.2495652,12.4980365 L15.733913,12.4980365 L15.733913,10.9838513 C15.733913,10.6714004 15.4692754,10.4070189 15.1565217,10.4070189 L13.4724638,10.4070189 C13.1597101,10.4070189 12.8950725,10.6714004 12.8950725,10.9838513 L12.8950725,12.4980365 L11.3794203,12.4980365 C11.0666667,12.4980365 10.802029,12.7624181 10.802029,13.074869 L10.802029,14.757297 C10.802029,15.0697479 11.0666667,15.3341294 11.3794203,15.3341294 L12.8950725,15.3341294 L12.8950725,16.8483146 C12.8950725,17.1607655 13.1597101,17.4251471 13.4724638,17.4251471 L15.1565217,17.4251471 C15.4692754,17.4251471 15.733913,17.1607655 15.733913,16.8483146 L15.733913,15.3341294 L17.2495652,15.3341294 C17.5623188,15.3341294 17.8269565,15.0697479 17.8269565,14.757297 L17.8269565,13.074869 C17.8269565,12.7624181 17.5623188,12.4980365 17.2495652,12.4980365 Z" id="路径" fill="#FFFFFF" opacity="0.95"></path>
                </g>
                <g id="编组" transform="translate(32.678675, 73.205972)" fill-rule="nonzero">
                    <g>
                        <path d="M10.4572666,4.22033713 L9.20625212,13.8582461 C9.06190429,14.9638416 8.12364342,15.7569862 7.04103473,15.7329515 C6.94480284,15.7329515 6.87262893,15.7329515 6.77639704,15.7089169 L1.89262893,15.084015 C0.713788349,14.9398069 -0.128240637,13.8582461 0.0161071891,12.6805465 L1.26712168,3.04263753 C1.41146951,1.86493794 2.4940782,1.02372394 3.69697675,1.16793205 L8.58074487,1.79283388 C9.78364342,1.96107668 10.6256724,3.04263753 10.4572666,4.22033713 Z" id="路径" fill="#D3E0F1"></path>
                        <polygon id="矩形" fill="#9FC3FD" transform="translate(5.180143, 9.011250) rotate(-82.657519) translate(-5.180143, -9.011250) " points="3.1365946 4.37991306 7.22255598 4.38041481 7.2236923 13.6425876 3.13773092 13.6420858"></polygon>
                        <polygon id="矩形" fill="#9FC3FD" transform="translate(6.220364, 0.874992) rotate(-82.657519) translate(-6.220364, -0.874992) " points="5.6072149 -1.20606444 6.83300331 -1.20591392 6.83351391 2.95604944 5.6077255 2.95589891"></polygon>
                        <polygon id="路径" fill="#F2F5FA" points="6.84857096 8.64271928 5.8140782 8.52254586 5.95842603 7.51308906 4.82770139 7.36888095 4.68335357 8.37833774 3.67291878 8.23412963 3.52857096 9.38779454 4.53900574 9.50796797 4.41871588 10.5414594 5.54944052 10.6856676 5.66973038 9.65217608 6.70422313 9.79638419"></polygon>
                    </g>
                    <path d="M10.4572666,4.22033713 L9.20625212,13.8582461 C9.06190429,14.9638416 8.12364342,15.7569862 7.04103473,15.7329515 L8.3882811,5.22979392 C8.50857096,4.31647587 8.70103473,3.47526187 7.78683183,3.35508845 L7.78683183,3.35508845 C7.18538255,3.28298439 6.7282811,2.82632536 6.63204922,2.22545822 L6.31929559,0.254613999 L8.36422313,0.518995541 L8.21987531,1.74476451 L8.60480284,1.79283388 C9.78364342,1.96107668 10.6256724,3.04263753 10.4572666,4.22033713 Z" id="路径" fill="#4052F2" opacity="0.11"></path>
                </g>
                <path d="M101.981739,91.3664268 C102.005797,91.3183574 102.005797,91.270288 102.029855,91.2222187 C102.029855,91.270288 102.005797,91.3183574 101.981739,91.3664268 Z" id="路径" fill="#4052F2" fill-rule="nonzero"></path>
                <path d="M107.65942,86.1028306 C107.563188,86.1749347 107.442899,86.2470387 107.346667,86.3431775 C107.418841,86.2710734 107.491014,86.1989694 107.563188,86.1028306 L107.65942,86.1028306 Z" id="路径" fill="#4052F2" fill-rule="nonzero"></path>
                <path d="M71.8371014,69.7592444 L71.8371014,73.3163779 L71.1153623,73.5567247 L69.3591304,74.1335572 C68.9501449,74.2777653 68.5411594,74.3258347 68.1081159,74.3258347 C67.2901449,74.3258347 66.4962319,74.0854878 65.8226087,73.5807594 C65.1730435,73.1000657 64.8602899,72.3069211 65.0286957,71.5137764 L65.7023188,68.2690939 L65.7263768,68.1248858 L65.8466667,67.572088 L65.9188406,67.187533 L65.9428986,67.0192902 L67.6991304,67.0192902 C67.8194203,67.0433249 67.9156522,67.115429 68.0118841,67.187533 L69.2869565,67.187533 C70.7063768,67.2115677 71.8371014,68.3411979 71.8371014,69.7592444 Z" id="路径" fill="#4052F2" fill-rule="nonzero" opacity="0.11"></path>
                <path d="M94.4997101,49.4980044 C94.5237681,49.5941431 94.5478261,49.6902819 94.5718841,49.7864206 C90.8428986,49.9546634 87.3063768,49.7383513 86.8252174,49.7864206 C85.7426087,49.8825594 82.8556522,44.8593101 82.8556522,44.8593101 C82.8556522,44.8593101 86.5124638,37.4085575 82.9518841,30.2462212 C82.7353623,29.8376316 83.2886957,28.3955504 83.3849275,27.9869608 C83.7457971,26.3526021 84.2269565,24.7182435 84.9005797,23.2040583 C85.7426087,21.2572488 87.0898551,19.6949942 88.773913,18.8778149 C89.6881159,20.3439307 91.4443478,22.1946015 95.1011594,23.2040583 C101.62087,24.9826251 93.3689855,44.8593101 94.4997101,49.4980044 Z" id="路径" fill="#4052F2" fill-rule="nonzero"></path>
                <path d="M112.952174,69.711175 C112.75971,69.7592444 112.591304,69.8073138 112.398841,69.8073138 C112.037971,69.8073138 111.653043,69.6871403 111.34029,69.4708282 L98.8301449,60.8904454 L99.0466667,58.6792543 L81.0272464,60.9144801 L82.8075362,64.4956482 L82.0136232,64.8802032 L80.6182609,64.0389892 L76.7449275,66.2501803 L76.6486957,67.4999839 L66.9773913,72.234817 C65.9188406,72.234817 65.1008696,71.3695683 65.1008696,70.3601115 C65.1008696,70.1918687 65.1249275,70.0236259 65.1730435,69.8553831 L70.7544928,49.449935 C71.4281159,46.9983971 73.2565217,45.0275529 75.6382609,44.1382695 L86.7049275,40.124477 L92.935942,39.283263 L104.171014,43.6335411 C107.082029,44.7631713 109.295362,47.1666399 110.185507,50.1469409 L114.876812,66.0338681 C115.309855,67.6201574 114.467826,69.2304813 112.952174,69.711175 Z" id="路径" fill="#FFFFFF" fill-rule="nonzero"></path>
                <path d="M93.0081159,32.7698632 C93.0562319,34.7407074 92.5269565,36.8076904 92.6713043,38.7785346 C92.6953623,39.1871243 92.8878261,39.3072977 93.3930435,39.6437833 C94.0907246,40.6772748 92.093913,47.3589174 90.8428986,47.5511949 C90.7707246,47.5752296 88.7257971,45.9649056 87.3063768,45.6043853 C86.5605797,45.4121078 85.2373913,41.0858644 85.1652174,41.0377951 C84.8765217,40.8214829 85.9110145,41.0377951 85.6944928,40.3888585 C85.9591304,40.3167545 86.6086957,39.6918527 86.8011594,39.5236099 C87.955942,38.442049 87.5950725,35.7741989 86.6327536,34.7647421 C85.8869565,34.0437015 93.0081159,32.7698632 93.0081159,32.7698632 Z" id="路径" fill="#FFCAE1" fill-rule="nonzero"></path>
                <path d="M83.6014493,28.8522094 C84.5878261,28.8522094 85.3817391,29.6453541 85.3817391,30.6307762 C85.3817391,31.6161983 84.5878261,32.4093429 83.6014493,32.4093429 C82.6150725,32.4093429 81.8211594,31.6161983 81.8211594,30.6307762 C81.8211594,29.6693888 82.6150725,28.8522094 83.6014493,28.8522094 Z" id="路径" fill="#FDB2D0" fill-rule="nonzero"></path>
                <path d="M95.0771014,32.3612735 C95.0771014,34.235979 94.3794203,35.9424417 93.2246377,37.144176 C93.0562319,37.3124188 92.8878261,37.4806616 92.6953623,37.6489044 C91.6849275,38.5141531 90.3857971,39.0188815 89.0144928,39.0429162 L88.9904348,39.0429162 C85.6463768,39.0429162 82.9037681,36.0866498 82.9037681,32.4333776 L82.8797101,26.4006715 C82.8556522,22.7473993 85.5982609,19.7430636 88.9423188,19.7188773 L88.9423188,19.7188773 C92.2142029,19.6949942 94.9327536,22.5310871 95.0530435,26.0882206 C95.0530435,26.1603247 95.0530435,26.2564634 95.0530435,26.3285675 L95.0771014,29.7174581 L95.0771014,32.3612735 Z" id="路径" fill="#FFCAE1" fill-rule="nonzero"></path>
                <rect id="矩形" fill="#342DEC" fill-rule="nonzero" x="82.8556522" y="65.9617641" width="14.4828986" height="23.0973329"></rect>
                <path d="M82.8075362,30.9672618 C82.8315942,31.3277821 82.8315942,31.6883024 82.7834783,32.0488226 C82.7834783,32.0488226 82.7353623,31.5681289 82.8075362,30.9672618 Z" id="路径" fill="#4052F2" fill-rule="nonzero"></path>
                <path d="M91.275942,89.0590969 C89.8324638,87.9294667 90.0971014,66.5626312 90.0971014,66.5626312 L88.3649275,89.0590969 L91.275942,89.0590969 Z" id="路径" fill="#0600A0" fill-rule="nonzero"></path>
                <path d="M99.6,49.2576575 C98.0843478,49.5460738 96.304058,49.7143166 94.5718841,49.7864206 C94.5478261,49.6902819 94.5237681,49.5701085 94.4997101,49.4980044 C93.9944928,47.4069868 95.3898551,42.1674253 96.4724638,36.9278638 C97.146087,33.6591466 97.6994203,30.3663946 97.6031884,27.818718 C97.5791304,27.049608 97.4828986,26.3285675 97.2904348,25.7036656 C97.2663768,25.6555963 97.2663768,25.6075269 97.2423188,25.5354228 C97.1701449,23.6366827 96.0634783,21.8100466 94.6921739,20.5121735 C93.1524638,19.0700924 91.2278261,18.5172946 89.2069565,18.6134334 C90.8188406,17.9644969 92.7194203,17.9885315 94.7402899,18.9258843 C97.073913,20.0074451 98.2046377,22.6752952 98.9985507,24.9826251 C100.008986,27.890822 100.393913,30.9912965 100.345797,34.0437015 C100.153333,43.873888 101.789275,40.581136 103.569565,45.8687669 C103.617681,46.012975 103.641739,46.1331484 103.665797,46.2533218 C103.930435,47.8636458 102.102029,48.7529291 99.6,49.2576575 Z" id="路径" fill="#4052F2" fill-rule="nonzero"></path>
                <path d="M120.001159,90.813629 L91.4684058,90.813629 C91.3721739,90.813629 91.275942,90.7174903 91.275942,90.6213515 L91.275942,89.3234785 C91.275942,89.2273397 91.3721739,89.131201 91.4684058,89.131201 L120.001159,89.131201 C120.097391,89.131201 120.193623,89.2273397 120.193623,89.3234785 L120.193623,90.6213515 C120.193623,90.7415249 120.097391,90.813629 120.001159,90.813629 Z" id="路径" fill="#4052F2" fill-rule="nonzero" opacity="0.15"></path>
                <path d="M95.0289855,26.0882206 C95.0289855,26.1603247 95.0289855,26.2564634 95.0289855,26.3285675 L95.0530435,29.7174581 L95.0771014,32.3612735 C95.0771014,34.235979 94.3794203,35.9424417 93.2246377,37.144176 C93.3930435,36.6634823 93.5133333,36.0385804 93.5614493,35.7982336 C94.2110145,33.4187997 93.7057971,31.4479555 92.3104348,29.4530766 C91.5886957,28.3955504 90.9631884,27.2659202 90.433913,26.1122553 C89.7602899,24.6942088 89.1588406,23.2040583 88.7017391,21.6898731" id="路径" fill="#FDB2D0" fill-rule="nonzero"></path>
                <path d="M104.002609,89.2033051 L95.2214493,89.972415 C93.826087,90.0925884 92.5750725,89.0831316 92.4307246,87.6891199 L90.0730435,66.8270127 L89.3513043,88.7226113 C89.3272464,89.515756 88.7257971,90.1646925 87.9318841,90.2367965 L78.1162319,90.4771434 C77.9718841,90.5011781 77.8275362,90.5011781 77.7072464,90.5011781 C75.8547826,90.429074 74.3872464,88.7947154 74.5797101,86.8959752 L75.3976812,79.3971533 L76.36,70.6004584 L76.6005797,68.3171632 L76.7449275,66.2501803 L77.2742029,58.9436359 L77.4426087,56.7805141 L78.6936232,56.6603407 L101.981739,54.497219 L102.029855,54.7856352 L102.583188,57.47752 L104.002609,64.4475789 L104.411594,66.4905271 L107.972174,83.8435702 C108.525507,86.4633509 106.673043,88.9629582 104.002609,89.2033051 Z" id="路径" fill="#FFFFFF" fill-rule="nonzero"></path>
                <path d="M105.061159,59.3522255 L103.16058,53.2233807 C102.535072,53.9444212 102.871884,55.266329 103.208696,56.3719245 C103.28087,56.6122713 103.016232,56.8045488 102.823768,56.6603407 C101.741159,55.8431614 99.9127536,54.8096699 98.9744928,54.953878 C99.9608696,55.6989533 100.995362,56.3959592 101.981739,57.1169997 C103.016232,57.862075 104.122899,58.4629421 105.061159,59.3522255 Z" id="路径" fill="#C3D1FF" fill-rule="nonzero" opacity="0.96"></path>
                <path d="M81.2437681,38.5141531 L96.6168116,38.0334594 C98.1324638,37.98539 99.3834783,39.1871243 99.4075362,40.6772748 L99.7924638,62.909359 C99.8165217,64.3514401 98.7098551,65.5531744 97.2663768,65.6493131 L84.7321739,66.5145618 C83.3127536,66.6107006 82.0617391,65.6012438 81.8692754,64.207232 L78.6695652,41.5905928 C78.4049275,40.0043036 79.6318841,38.5622224 81.2437681,38.5141531 Z" id="路径" fill="#4052F2" fill-rule="nonzero"></path>
                <path d="M99.6,49.2576575 C97.3144928,43.7296799 96.5686957,39.8600955 96.4965217,36.9278638 C96.3762319,32.6977591 97.6272464,30.414464 97.6272464,27.818718 C97.6272464,27.1457468 97.5310145,26.4487409 97.3144928,25.7036656 C97.2904348,25.6555963 97.2904348,25.6075269 97.2663768,25.5354228 C97.1942029,23.6366827 96.0875362,21.8100466 94.7162319,20.5121735 C93.1765217,19.0700924 91.2518841,18.5172946 89.2310145,18.6134334 C90.8428986,17.9644969 92.7434783,17.9885315 94.7643478,18.9258843 C97.097971,20.0074451 98.2286957,22.6752952 99.0226087,24.9826251 C100.033043,27.890822 100.417971,30.9912965 100.369855,34.0437015 C100.177391,43.873888 101.813333,40.581136 103.593623,45.8687669 L103.689855,46.2533218 C103.930435,47.8636458 102.102029,48.7529291 99.6,49.2576575 Z" id="路径" fill="#0600A0" fill-rule="nonzero" opacity="0.49"></path>
                <path d="M77.5628986,74.9988059 C77.5628986,74.9988059 87.4507246,77.3301704 88.0281159,75.4073955" id="路径" fill="#C3D1FF" fill-rule="nonzero"></path>
                <path d="M81.9655072,65.8175559 C81.7971014,65.6252785 81.6768116,65.3849316 81.5805797,65.1445847 C81.8692754,64.9282726 83.2886957,63.8947811 81.9655072,65.8175559 Z" id="路径" fill="#D3E0F1" fill-rule="nonzero"></path>
                <path d="M104.435652,66.5145618 C102.246377,64.9763419 99.7684058,61.5634166 99.7684058,61.5634166 L104.026667,64.4716135 L104.435652,66.5145618 Z" id="路径" fill="#C3D1FF" fill-rule="nonzero"></path>
                <path d="M77.2982609,58.8474971 L76.8171014,62.524804 L73.7857971,63.293914 L76.8892754,54.8096699 L76.8892754,54.8096699 C77.2742029,56.1075429 77.4185507,57.47752 77.2982609,58.8474971 Z" id="路径" fill="#9FC3FD" fill-rule="nonzero"></path>
                <path d="M83.5773913,66.7789434 L76.36,70.6004584 L76.6005797,68.3171632 L76.6486957,67.4999839 L81.5565217,65.0965154 L81.7249275,65.0244113 L82.0136232,64.8802032 L82.3985507,65.0965154 C82.3023188,65.2647582 82.182029,65.4810703 81.9655072,65.7935213 C82.3744928,66.2982497 82.9278261,66.6587699 83.5773913,66.7789434 Z" id="路径" fill="#4052F2" fill-rule="nonzero" opacity="0.11"></path>
                <path d="M97.2663768,25.5594575 C96.9055072,24.3577232 96.2078261,23.5165092 95.0771014,23.2040583 C91.3962319,22.1946015 89.64,20.3439307 88.7498551,18.8778149 C88.9182609,18.8057109 89.0626087,18.7336068 89.2310145,18.6615027 C91.2518841,18.565364 93.1765217,19.1181618 94.7162319,20.5602429 C96.0875362,21.8100466 97.1942029,23.6607174 97.2663768,25.5594575 Z" id="路径" fill="#4052F2" fill-rule="nonzero"></path>
                <path d="M99.3353623,63.2218099 C99.3353623,63.4861914 99.3113043,63.7746077 99.2391304,64.0149545 C98.9263768,65.0724807 97.9881159,65.88966 96.8333333,65.9617641 L84.2991304,66.8270127 C84.0585507,66.8510474 83.817971,66.8270127 83.6014493,66.7789434 C83.024058,66.6587699 82.4947826,66.3703537 82.1098551,65.9377294 C82.0617391,65.88966 82.0376812,65.8415906 81.9895652,65.7935213 C81.9895652,65.7935213 81.8692754,65.6493131 81.7489855,65.505105 C81.7249275,65.433001 81.6768116,65.3608969 81.6527536,65.2887929 C81.6046377,65.1926541 81.5805797,65.1205501 81.5805797,65.1205501 C81.5805797,65.1205501 81.5805797,65.0965154 81.5805797,65.0965154 C81.5084058,64.9042379 81.4602899,64.7119604 81.4362319,64.4956482 L78.4289855,43.2489861 L78.2365217,41.8790091 C78.0921739,40.8214829 78.5733333,39.8120261 79.3913043,39.2592283 C79.704058,39.0429162 80.0889855,38.898708 80.497971,38.826604 C80.5942029,38.8025693 80.7144928,38.8025693 80.8347826,38.8025693 L82.7594203,38.7304652 L96.1837681,38.2978409 C96.5927536,38.2738062 97.0017391,38.369945 97.3626087,38.5141531 C98.3008696,38.9227427 98.9504348,39.8600955 98.9744928,40.9416563 L99.2150725,55.0980862 L99.2631884,57.47752 L99.2872464,59.0397746 L99.3353623,63.2218099 Z" id="路径" fill="#D3E0F1" fill-rule="nonzero"></path>
                <g id="编组" transform="translate(95.311298, 69.062239)">
                    <path d="M7.03131026,20.4775522 C6.3336291,18.9874016 5.63594794,17.4972511 5.03449867,15.9830659 C3.39855664,11.8010306 2.48435374,7.06619757 4.02406389,2.8360929" id="路径" stroke="#85A9FF" stroke-width="0.5" stroke-linecap="round" stroke-linejoin="round"></path>
                    <path d="M4.0962378,0.360520284 C4.21652765,0.192277485 4.38493345,0 4.60145519,0 C4.81797693,0 4.98638273,0.216312171 5.03449867,0.408589656 C5.08261461,0.624901826 5.03449867,0.841213997 4.98638273,1.05752617 C4.89015084,1.49015051 4.31275954,4.3502781 3.59102041,3.1725785 C3.10986099,2.42750325 3.63913635,0.985422111 4.0962378,0.360520284 Z" id="路径" fill="#85A9FF" fill-rule="nonzero"></path>
                    <path d="M0.583774031,7.04216289 C0.391310263,6.92198946 0.198846495,6.77778135 0.174788524,6.58550386 C0.126672582,6.39322638 0.271020408,6.22498358 0.463484176,6.20094889 C0.631889973,6.15287952 0.848411713,6.20094889 1.04087548,6.24901826 C1.44986099,6.34515701 4.0962378,6.8498854 3.20609287,7.49882192 C2.62870157,7.90741157 1.23333925,7.42671786 0.583774031,7.04216289 Z" id="路径" fill="#85A9FF" fill-rule="nonzero"></path>
                    <path d="M5.78029577,16.8483146 C5.61188997,16.8002453 5.39536823,16.7281412 5.32319432,16.5839331 C5.25102041,16.439725 5.32319432,16.2714822 5.44348418,16.1993781 C5.587832,16.1272741 5.7562378,16.1032394 5.9246436,16.0792047 C6.28551316,16.05517 8.59507838,15.7907885 8.01768707,16.5598984 C7.68087548,17.0405921 6.40580302,17.0165574 5.78029577,16.8483146 Z" id="路径" fill="#85A9FF" fill-rule="nonzero"></path>
                    <path d="M2.62870157,15.9590313 C2.46029577,15.9349966 2.267832,15.8869272 2.17160012,15.7427191 C2.07536823,15.6225457 2.12348418,15.4543029 2.24377403,15.3581641 C2.36406389,15.2620254 2.53246968,15.2379907 2.67681751,15.213956 C3.0136291,15.1418519 5.13073055,14.6611582 4.69768707,15.4302682 C4.40899142,15.9349966 3.23015084,16.0311353 2.62870157,15.9590313 Z" id="路径" fill="#85A9FF" fill-rule="nonzero"></path>
                    <path d="M0.31913635,4.10993124 C0.07855664,3.8455497 -0.113907128,3.43696004 0.07855664,3.14854382 C0.198846495,2.95626633 0.463484176,2.90819696 0.680005915,2.93223165 C0.896527655,2.95626633 1.11304939,3.07643976 1.30551316,3.1725785 C2.02725229,3.58116816 2.77304939,3.96572313 3.32638273,4.56659027 C4.04812186,5.31166552 2.4362378,5.1914921 2.07536823,5.11938804 C1.40174505,4.97517993 0.776237799,4.61465964 0.31913635,4.10993124 Z" id="路径" fill="#85A9FF" fill-rule="nonzero"></path>
                    <path d="M0.655947944,11.5847185 C0.367252292,11.464545 0.054498669,11.2001635 0.102614611,10.8877126 C0.150730553,10.6954351 0.31913635,10.551227 0.511600118,10.4791229 C0.704063886,10.4310536 0.920585626,10.4310536 1.11304939,10.4550882 C1.83478852,10.5271923 2.58058563,10.5752617 3.27826678,10.8636779 C4.12029577,11.2001635 2.79710736,11.6808572 2.46029577,11.7529613 C1.88290447,11.8971694 1.23333925,11.8491 0.655947944,11.5847185 Z" id="路径" fill="#85A9FF" fill-rule="nonzero"></path>
                    <path d="M5.05855664,7.73916877 C5.39536823,7.73916877 5.73217983,7.73916877 6.02087548,7.78723814 C6.3336291,7.83530751 6.62232476,7.97951563 6.76667258,8.1958278 C6.79073055,8.21986248 6.81478852,8.26793186 6.79073055,8.29196654 C6.79073055,8.3640706 6.69449867,8.41213997 6.62232476,8.46020934 C6.09304939,8.74862557 5.44348418,8.82072963 4.86609287,8.74862557 C4.28870157,8.67652151 3.78348418,8.46020934 3.32638273,8.1958278 C2.53246968,7.6910994 4.76986099,7.73916877 5.05855664,7.73916877 Z" id="路径" fill="#85A9FF" fill-rule="nonzero"></path>
                    <path d="M5.10667258,5.74428987 C5.44348418,5.74428987 5.78029577,5.74428987 6.09304939,5.81639392 C6.40580302,5.88849798 6.69449867,6.03270609 6.86290447,6.29708763 C6.88696244,6.32112232 6.91102041,6.36919169 6.91102041,6.39322638 C6.91102041,6.46533043 6.81478852,6.53743449 6.74261461,6.58550386 C6.21333925,6.87392009 5.56377403,6.97005883 4.98638273,6.87392009 C4.40899142,6.77778135 3.87971606,6.51339981 3.42261461,6.20094889 C2.58058563,5.64815112 4.8420349,5.74428987 5.10667258,5.74428987 Z" id="路径" fill="#85A9FF" fill-rule="nonzero"></path>
                    <path d="M5.82841171,14.1323951 C6.06899142,14.1323951 6.28551316,14.1564298 6.52609287,14.2285339 C6.74261461,14.3006379 6.95913635,14.4448461 7.07942621,14.6371235 C7.10348418,14.6611582 7.10348418,14.6851929 7.10348418,14.7332623 C7.10348418,14.8053663 7.05536823,14.8534357 7.00725229,14.8774704 C6.64638273,15.1178173 6.18928128,15.1418519 5.78029577,15.0457132 C5.37131026,14.9495745 4.98638273,14.7332623 4.64957113,14.4688807 C4.04812186,13.988187 5.63594794,14.1323951 5.82841171,14.1323951 Z" id="路径" fill="#85A9FF" fill-rule="nonzero"></path>
                    <path d="M5.53971606,12.1134816 C5.82841171,12.1375162 6.11710736,12.1855856 6.40580302,12.2576897 C6.6704407,12.3538284 6.91102041,12.4740018 7.00725229,12.690314 C7.03131026,12.7143487 7.03131026,12.7383834 7.03131026,12.7624181 C7.00725229,12.8104874 6.93507838,12.8585568 6.86290447,12.8825915 C6.35768707,13.0508343 5.78029577,13.0508343 5.27507838,12.9066262 C4.76986099,12.7864528 4.33681751,12.5461059 3.97594794,12.2817244 C3.30232476,11.776996 5.29913635,12.0894469 5.53971606,12.1134816 Z" id="路径" fill="#85A9FF" fill-rule="nonzero"></path>
                    <path d="M3.30232476,8.94090305 C2.84522331,8.58038277 2.21971606,8.43617466 1.64232476,8.50827871 C1.44986099,8.5323134 1.23333925,8.60441745 1.08899142,8.72459088 C0.944643597,8.868799 0.872469684,9.08511117 0.968701568,9.27738865 C1.08899142,9.51773551 1.42580302,9.56580488 1.6904407,9.54177019 C2.09942621,9.51773551 2.50841171,9.42159677 2.89333925,9.30142334 C3.0136291,9.25335397 3.13391896,9.2052846 3.20609287,9.10914585 C3.27826678,9.01300711 3.27826678,8.84476431 3.1820349,8.77266025" id="路径" fill="#85A9FF" fill-rule="nonzero"></path>
                    <path d="M4.07217983,13.4113546 C3.61507838,13.0508343 2.98957113,12.9066262 2.41217983,12.9787302 C2.21971606,13.0027649 2.00319432,13.074869 1.8588465,13.1950424 C1.71449867,13.3392505 1.64232476,13.5555627 1.73855664,13.7478402 C1.8588465,13.988187 2.19565809,14.0362564 2.46029577,14.0122217 C2.86928128,13.988187 3.27826678,13.8920483 3.66319432,13.7718749 C3.78348418,13.7238055 3.90377403,13.6757361 3.97594794,13.5795974 C4.04812186,13.4834586 4.04812186,13.3152158 3.95188997,13.2431118" id="路径" fill="#85A9FF" fill-rule="nonzero"></path>
                    <path d="M6.45391896,9.85422111 C6.62232476,9.87825579 6.79073055,9.95035985 6.8388465,10.1186026 C6.88696244,10.2868454 6.74261461,10.4550882 6.57420881,10.5271923 C6.16522331,10.7435045 5.68406389,10.6714004 5.22696244,10.5752617 C4.74580302,10.4791229 4.24058563,10.4070189 3.75942621,10.3108801 C3.13391896,10.1907067 3.42261461,9.97439454 3.87971606,9.87825579 C4.74580302,9.66194362 5.63594794,9.66194362 6.45391896,9.85422111 Z" id="路径" fill="#85A9FF" fill-rule="nonzero"></path>
                </g>
                <path d="M83.6736232,56.4440285 C83.6736232,56.4440285 85.1892754,57.2131385 84.4434783,59.4723989 C83.6736232,61.7556941 82.9278261,61.7556941 82.9278261,61.7556941 L83.6736232,56.4440285 Z" id="路径" fill="#4052F2" fill-rule="nonzero" opacity="0.11"></path>
                <path d="M97.2663768,25.5594575 C96.9055072,24.3577232 96.2078261,23.5165092 95.0771014,23.2040583 C91.3962319,22.1946015 89.64,20.3439307 88.7498551,18.8778149 C88.9182609,18.8057109 89.0626087,18.7336068 89.2310145,18.6615027 C91.2518841,18.565364 93.1765217,19.1181618 94.7162319,20.5602429 C96.0875362,21.8100466 97.1942029,23.6607174 97.2663768,25.5594575 Z" id="路径" fill="#0600A0" fill-rule="nonzero" opacity="0.49"></path>
                <path d="M97.146087,26.8573305 C97.073913,27.1938161 96.7371014,29.0925563 96.28,29.116591 C95.6063768,29.116591 95.2936232,29.8857009 95.1733333,30.7509496 C94.9568116,30.0058744 94.6681159,29.3088685 94.2591304,28.6839666 C93.4411594,27.4101283 92.0698551,27.0976774 90.6985507,26.8332959 C89.664058,26.6410184 88.6536232,26.1843593 87.98,25.3431453 C87.8115942,25.1268332 87.0417391,24.1894804 87.137971,23.9250989 C87.0898551,24.0452723 85.8388406,27.4581977 84.2028986,28.4916892 C83.2646377,29.0925563 82.9518841,30.1741172 82.8556522,30.9672618 C82.6631884,28.8762441 81.1956522,26.977504 81.0753623,24.9345557 C81.0513043,24.5980701 81.0753623,24.2615845 81.1475362,23.9010642 C81.2197101,23.5645786 81.315942,23.2521277 81.4843478,22.9156421 C82.5669565,20.632347 85.3576812,19.3585086 87.6913043,18.8778149 C88.2205797,18.7576415 88.7498551,18.7095721 89.2791304,18.6855374 C89.1107246,18.7576415 88.9423188,18.8297455 88.797971,18.9018496 C89.7121739,20.3679654 91.4684058,22.2186362 95.1252174,23.228093 C96.255942,23.5405439 96.9295652,24.3817579 97.3144928,25.5834922 C97.2663768,25.9920819 97.2423188,26.4247062 97.146087,26.8573305 Z" id="路径" fill="#4052F2" fill-rule="nonzero"></path>
                <path d="M95.462029,28.7801054 C96.4484058,28.7801054 97.2423188,29.57325 97.2423188,30.5586721 C97.2423188,31.5440942 96.4484058,32.3372389 95.462029,32.3372389 C94.4756522,32.3372389 93.6817391,31.5440942 93.6817391,30.5586721 C93.6817391,29.5972847 94.4756522,28.8041401 95.462029,28.7801054 Z" id="路径" fill="#FDB2D0" fill-rule="nonzero"></path>
                <polygon id="路径" fill="#FFFFFF" fill-rule="nonzero" points="82.0136232 64.8802032 76.6727536 67.4999839 76.7689855 66.274215 80.6423188 64.0630239"></polygon>
                <path d="M87.98,61.9479716 L81.8211594,65.3608969 C81.7730435,65.3128275 81.7489855,65.2647582 81.7008696,65.2166888 C81.7008696,65.2166888 81.5805797,65.0724807 81.4602899,64.9282726 C81.4362319,64.8561685 81.3881159,64.7840645 81.364058,64.7119604 L81.4362319,64.4235442 L86.7530435,61.2509657 C86.9455072,61.1548269 87.137971,61.0346535 87.3063768,60.8904454 L89.7843478,58.6792543 C89.9527536,58.5110115 90.0489855,58.2706647 90.1211594,58.0062831 C90.1692754,58.0543525 90.2173913,58.1024219 90.2414493,58.1504912 C91.0353623,59.6646764 87.98,61.9479716 87.98,61.9479716 Z" id="路径" fill="#4052F2" fill-rule="nonzero" opacity="0.11"></path>
                <path d="M90.2655072,57.2612079 C90.0971014,56.9487569 89.7121739,56.8526182 89.4234783,57.020861 L86.4643478,58.7753931 L89.5197101,56.5401673 C89.5918841,56.4920979 89.615942,56.4199939 89.615942,56.3478898 C89.615942,56.2998204 89.615942,56.2757857 89.5918841,56.2517511 C89.4956522,56.0594736 89.3272464,55.9633348 89.1347826,55.9633348 C89.0385507,55.9633348 88.9423188,55.9873695 88.846087,56.0594736 L84.1788406,59.0397746 L84.2510145,57.8861097 C84.2991304,57.1650691 84.1066667,56.4680632 83.7217391,55.8912308 C83.7217391,55.8912308 83.6976812,55.8671961 83.6976812,55.8671961 C83.5773913,55.8191267 83.4330435,55.9152655 83.3849275,56.0354389 L82.4947826,58.9917052 L80.9310145,61.7076247 L81.2437681,65.3368622 L81.7249275,65.048446 L87.0417391,61.8758675 C87.2342029,61.7797288 87.4266667,61.6595553 87.5950725,61.5153472 L90.0730435,59.3041561 C90.2414493,59.1359133 90.3376812,58.8955665 90.4098551,58.6311849 C90.506087,58.1264565 90.457971,57.6217281 90.2655072,57.2612079 Z" id="路径" fill="#FFCAE1" fill-rule="nonzero"></path>
                <g id="编组" transform="translate(90.600150, 75.452557)">
                    <path d="M26.8749229,14.3756495 C26.9470968,14.3756495 27.2598505,14.1353026 27.2839084,14.0151292 C27.3801403,13.414262 27.0914447,12.7893602 26.6584012,12.3807705 C26.2012997,11.9721809 25.6239084,11.7558687 25.0224592,11.6837647 C24.5653577,11.6356953 24.0841983,11.65973 23.6752128,11.3953484 C23.482749,11.275175 23.3384012,11.0828975 23.2902852,10.8665854 C23.1699954,10.2897529 23.7955026,9.90519793 24.2285461,9.47257359 C24.9743432,8.72749833 25.0946331,7.45365999 24.5172418,6.58841131 C23.9398505,5.72316263 22.7128939,5.33860766 21.7505751,5.74719732 C21.1972418,5.96350949 20.6439084,6.42016851 20.0665171,6.13175229 C19.8499954,6.01157886 19.6815896,5.81930137 19.6094157,5.57895452 C19.4169519,5.00212206 19.5853577,4.42528961 19.7297055,3.87249184 C19.8981113,3.15145127 19.9702852,2.40637601 19.8018795,1.70937013 C19.6094157,1.01236425 19.1282563,0.339393049 18.4305751,0.0990461925 C17.4441983,-0.237439406 16.4578215,0.339393049 15.7601403,0.988329561 C14.388836,2.2621679 14.5091258,3.87249184 13.8836186,5.45878109 C12.8972418,8.00645776 10.1065171,8.72749833 7.65260409,9.08801862 C4.64535771,9.54467764 0.82014032,9.90519793 0.0502852479,13.4382967 C0.00216930589,13.6065395 -0.0218886651,13.7747823 0.0262272769,13.9430251 C0.3389809,15.1928288 3.15376351,14.6881004 4.01985047,14.6159963 C10.178691,14.0631985 16.4097055,14.4237188 22.5926041,14.3756495 C23.9639084,14.3996841 25.4314447,14.3996841 26.8749229,14.3756495 Z" id="路径" fill="#9FC3FD" fill-rule="nonzero"></path>
                    <g transform="translate(4.549126, 2.262168)" id="路径" stroke="#F2F5FA" stroke-linecap="round" stroke-linejoin="round" stroke-width="0.5">
                        <path d="M0,10.7915738 C2.09304348,10.1186026 4.30637681,9.90229048 6.37536232,9.18124991 C8.05942029,8.58038277 9.74347826,7.54689129 10.6095652,5.96060204 C11.5718841,4.23010467 11.595942,1.92277485 11.8846377,0"></path>
                        <path d="M17.8510145,5.79235924 C17.442029,6.99409352 10.4171014,7.42671786 8.34811594,8.43617466"></path>
                        <path d="M20.4973913,10.8156085 C20.4973913,10.8156085 12.413913,10.7194698 8.34811594,8.41213997"></path>
                    </g>
                </g>
                <g id="编组" transform="translate(67.651014, 79.276980)" fill-rule="nonzero">
                    <path d="M7.02492754,2.57171136 L7.02492754,9.92632516 C7.02492754,10.7675392 6.39942029,11.464545 5.58144928,11.5606838 C5.50927536,11.5606838 5.46115942,11.5606838 5.38898551,11.5606838 L1.63594203,11.5606838 C0.72173913,11.5606838 0,10.8396432 0,9.92632516 L0,2.57171136 C0,1.65839331 0.72173913,0.93735274 1.63594203,0.93735274 L5.38898551,0.93735274 C6.27913043,0.93735274 7.02492754,1.65839331 7.02492754,2.57171136 Z" id="路径" fill="#FCAA23"></path>
                    <rect id="矩形" fill="#FF7F00" x="0" y="5.14342272" width="7.02492754" height="3.10047445"></rect>
                    <rect id="矩形" fill="#FF7F00" x="1.94869565" y="0" width="3.1515942" height="1"></rect>
                    <polygon id="路径" fill="#FFFFFF" opacity="0.95" points="4.73942029 6.24901826 3.94550725 6.24901826 3.94550725 5.47990832 3.07942029 5.47990832 3.07942029 6.24901826 2.30956522 6.24901826 2.30956522 7.11426695 3.07942029 7.11426695 3.07942029 7.90741157 3.94550725 7.90741157 3.94550725 7.11426695 4.73942029 7.11426695"></polygon>
                    <path d="M7.02492754,2.57171136 L7.02492754,9.92632516 C7.02492754,10.7675392 6.39942029,11.464545 5.58144928,11.5606838 L5.58144928,3.53309879 C5.58144928,2.8360929 5.65362319,2.18715639 4.93188406,2.18715639 L4.93188406,2.18715639 C4.47478261,2.18715639 4.0657971,1.89874016 3.94550725,1.44208114 L3.51246377,0 L5.07623188,0 L5.07623188,0.93735274 L5.36492754,0.93735274 C6.27913043,0.93735274 7.02492754,1.65839331 7.02492754,2.57171136 Z" id="路径" fill="#4052F2" opacity="0.11"></path>
                </g>
                <g id="编组" opacity="0.22" transform="translate(67.651014, 79.276980)" fill="#FFFFFF" fill-rule="nonzero">
                    <g>
                        <path d="M7.02492754,2.57171136 L7.02492754,9.92632516 C7.02492754,10.7675392 6.39942029,11.464545 5.58144928,11.5606838 C5.50927536,11.5606838 5.46115942,11.5606838 5.38898551,11.5606838 L1.63594203,11.5606838 C0.72173913,11.5606838 0,10.8396432 0,9.92632516 L0,2.57171136 C0,1.65839331 0.72173913,0.93735274 1.63594203,0.93735274 L5.38898551,0.93735274 C6.27913043,0.93735274 7.02492754,1.65839331 7.02492754,2.57171136 Z" id="路径"></path>
                        <rect id="矩形" x="0" y="5.14342272" width="7.02492754" height="3.10047445"></rect>
                        <rect id="矩形" x="1.94869565" y="0" width="3.1515942" height="1"></rect>
                        <g opacity="0.95" transform="translate(2.309565, 5.479908)" id="路径">
                            <polygon points="2.42985507 0.76910994 1.63594203 0.76910994 1.63594203 0 0.769855072 0 0.769855072 0.76910994 0 0.76910994 0 1.63435862 0.769855072 1.63435862 0.769855072 2.42750325 1.63594203 2.42750325 1.63594203 1.63435862 2.42985507 1.63435862"></polygon>
                        </g>
                        <path d="M7.02492754,2.57171136 L7.02492754,9.92632516 C7.02492754,10.7675392 6.39942029,11.464545 5.58144928,11.5606838 L5.58144928,3.53309879 C5.58144928,2.8360929 5.65362319,2.18715639 4.93188406,2.18715639 L4.93188406,2.18715639 C4.47478261,2.18715639 4.0657971,1.89874016 3.94550725,1.44208114 L3.51246377,0 L5.07623188,0 L5.07623188,0.93735274 L5.36492754,0.93735274 C6.27913043,0.93735274 7.02492754,1.65839331 7.02492754,2.57171136 Z" id="路径" opacity="0.11"></path>
                    </g>
                </g>
                <path d="M77.6831884,90.4771434 C75.8307246,90.4050393 74.3631884,88.7706807 74.5556522,86.8719406 L75.3736232,79.3731186 C75.9991304,80.4306448 79.5837681,86.9440446 77.6831884,90.4771434 Z" id="路径" fill="#4052F2" fill-rule="nonzero" opacity="0.08"></path>
                <path d="M99.3353623,63.2218099 C99.3353623,63.4861914 99.3113043,63.7746077 99.2391304,64.0149545 L78.4049275,43.2730208 L78.2124638,41.9030437 C78.0681159,40.8455176 78.5492754,39.8360608 79.3672464,39.283263 L99.2631884,59.087844 L99.3353623,63.2218099 Z" id="路径" fill="url(#linearGradient-5)" fill-rule="nonzero"></path>
                <path d="M99.2391304,57.5255894 L80.473913,38.8506387 C80.5701449,38.826604 80.6904348,38.826604 80.8107246,38.826604 L82.7353623,38.7544999 L99.1910145,55.1461555 L99.2391304,57.5255894 Z" id="路径" fill="url(#linearGradient-6)" fill-rule="nonzero"></path>
            </g>
        </g>
    </g>
</svg>